# MagicaVoxel @ Ephtracy

# group
o 

# material
mtllib monster.mtl
usemtl palette

# normals
vn -1 0 0
vn 1 0 0
vn 0 0 1
vn 0 0 -1
vn 0 -1 0
vn 0 1 0

# texcoords
vt 0.880859 0.5
vt 0.978516 0.5
vt 0.990234 0.5
vt 0.994141 0.5

# verts
v -0.2 0 0.2
v -0.2 0 -2.98023e-08
v -0.2 0.2 0.2
v -0.2 0.2 0.1
v -0.2 0.4 0.2
v -0.2 0.4 0.1
v -0.2 0.5 0.2
v -0.2 0.5 -2.98023e-08
v -0.2 0.6 0.2
v -0.2 0.6 -2.98023e-08
v -0.0999999 0 0.3
v -0.0999999 0 0.2
v -0.0999999 0 -2.98023e-08
v -0.0999999 0 -0.1
v -0.0999999 0.1 0.3
v -0.0999999 0.1 0.2
v -0.0999999 0.2 0.3
v -0.0999999 0.2 0.2
v -0.0999999 0.4 0.2
v -0.0999999 0.5 0.3
v -0.0999999 0.5 0.2
v -0.0999999 0.5 -2.98023e-08
v -0.0999999 0.5 -0.1
v -0.0999999 0.6 0.3
v -0.0999999 0.6 0.2
v -0.0999999 0.6 -2.98023e-08
v -0.0999999 0.6 -0.1
v 0.1 0 0.3
v 0.1 0 0.2
v 0.1 0 -2.98023e-08
v 0.1 0 -0.1
v 0.1 0.2 0.3
v 0.1 0.2 0.2
v 0.1 0.4 0.3
v 0.1 0.4 0.2
v 0.1 0.5 0.3
v 0.1 0.5 0.2
v 0.1 0.5 -2.98023e-08
v 0.1 0.5 -0.1
v 0.1 0.6 0.3
v 0.1 0.6 0.2
v 0.1 0.6 -2.98023e-08
v 0.1 0.6 -0.1
v 0.2 0 0.2
v 0.2 0 -2.98023e-08
v 0.2 0.2 0.2
v 0.2 0.2 0.1
v 0.2 0.4 0.2
v 0.2 0.4 0.1
v 0.2 0.5 0.2
v 0.2 0.5 -2.98023e-08
v 0.2 0.6 0.2
v 0.2 0.6 -2.98023e-08
v -0.0999999 0 0.3
v -0.0999999 0.1 0.3
v -0.0999999 0.2 0.3
v -0.0999999 0.5 0.3
v -0.0999999 0.6 0.3
v 5.96046e-08 0.1 0.3
v 5.96046e-08 0.2 0.3
v 5.96046e-08 0.4 0.3
v 0.1 0 0.3
v 0.1 0.2 0.3
v 0.1 0.4 0.3
v 0.1 0.5 0.3
v 0.1 0.6 0.3
v -0.2 0 0.2
v -0.2 0.2 0.2
v -0.2 0.4 0.2
v -0.2 0.5 0.2
v -0.2 0.6 0.2
v -0.0999999 0 0.2
v -0.0999999 0.1 0.2
v -0.0999999 0.2 0.2
v -0.0999999 0.4 0.2
v -0.0999999 0.5 0.2
v -0.0999999 0.6 0.2
v 0.1 0 0.2
v 0.1 0.2 0.2
v 0.1 0.4 0.2
v 0.1 0.5 0.2
v 0.1 0.6 0.2
v 0.2 0 0.2
v 0.2 0.2 0.2
v 0.2 0.4 0.2
v 0.2 0.5 0.2
v 0.2 0.6 0.2
v -0.2 0 -2.98023e-08
v -0.2 0.5 -2.98023e-08
v -0.2 0.6 -2.98023e-08
v -0.0999999 0 -2.98023e-08
v -0.0999999 0.5 -2.98023e-08
v -0.0999999 0.6 -2.98023e-08
v 0.1 0 -2.98023e-08
v 0.1 0.5 -2.98023e-08
v 0.1 0.6 -2.98023e-08
v 0.2 0 -2.98023e-08
v 0.2 0.5 -2.98023e-08
v 0.2 0.6 -2.98023e-08
v -0.0999999 0 -0.1
v -0.0999999 0.5 -0.1
v -0.0999999 0.6 -0.1
v 0.1 0 -0.1
v 0.1 0.5 -0.1
v 0.1 0.6 -0.1
v -0.0999999 0 0.3
v 0.1 0 0.3
v -0.2 0 0.2
v -0.0999999 0 0.2
v 0.1 0 0.2
v 0.2 0 0.2
v -0.2 0 -2.98023e-08
v -0.0999999 0 -2.98023e-08
v 0.1 0 -2.98023e-08
v 0.2 0 -2.98023e-08
v -0.0999999 0 -0.1
v 0.1 0 -0.1
v -0.0999999 0.6 0.3
v 0.1 0.6 0.3
v -0.2 0.6 0.2
v -0.0999999 0.6 0.2
v 0.1 0.6 0.2
v 0.2 0.6 0.2
v 5.96046e-08 0.6 0.1
v 0.1 0.6 0.1
v -0.2 0.6 -2.98023e-08
v -0.0999999 0.6 -2.98023e-08
v 5.96046e-08 0.6 -2.98023e-08
v 0.1 0.6 -2.98023e-08
v 0.2 0.6 -2.98023e-08
v -0.0999999 0.6 -0.1
v 0.1 0.6 -0.1

# faces
f 3/4/1 2/4/1 1/4/1
f 4/4/1 2/4/1 3/4/1
f 5/1/1 4/1/1 3/1/1
f 6/4/1 2/4/1 4/4/1
f 6/1/1 4/1/1 5/1/1
f 7/4/1 6/4/1 5/4/1
f 8/4/1 2/4/1 6/4/1
f 8/4/1 6/4/1 7/4/1
f 9/2/1 8/2/1 7/2/1
f 10/2/1 8/2/1 9/2/1
f 15/4/1 12/4/1 11/4/1
f 16/4/1 12/4/1 15/4/1
f 17/1/1 16/1/1 15/1/1
f 18/1/1 16/1/1 17/1/1
f 19/4/1 18/4/1 17/4/1
f 20/4/1 19/4/1 17/4/1
f 21/4/1 19/4/1 20/4/1
f 22/4/1 14/4/1 13/4/1
f 23/4/1 14/4/1 22/4/1
f 24/2/1 21/2/1 20/2/1
f 25/2/1 21/2/1 24/2/1
f 26/2/1 23/2/1 22/2/1
f 27/2/1 23/2/1 26/2/1
f 28/4/2 29/4/2 32/4/2
f 32/4/2 29/4/2 33/4/2
f 32/1/2 33/1/2 34/1/2
f 34/1/2 33/1/2 35/1/2
f 34/4/2 35/4/2 36/4/2
f 36/4/2 35/4/2 37/4/2
f 30/4/2 31/4/2 38/4/2
f 38/4/2 31/4/2 39/4/2
f 36/2/2 37/2/2 40/2/2
f 40/2/2 37/2/2 41/2/2
f 38/2/2 39/2/2 42/2/2
f 42/2/2 39/2/2 43/2/2
f 44/4/2 45/4/2 46/4/2
f 46/4/2 45/4/2 47/4/2
f 46/1/2 47/1/2 48/1/2
f 47/4/2 45/4/2 49/4/2
f 48/1/2 47/1/2 49/1/2
f 48/4/2 49/4/2 50/4/2
f 49/4/2 45/4/2 51/4/2
f 50/4/2 49/4/2 51/4/2
f 50/2/2 51/2/2 52/2/2
f 52/2/2 51/2/2 53/2/2
f 59/4/3 55/4/3 54/4/3
f 59/1/3 56/1/3 55/1/3
f 60/4/3 57/4/3 56/4/3
f 60/1/3 56/1/3 59/1/3
f 61/4/3 57/4/3 60/4/3
f 62/4/3 59/4/3 54/4/3
f 62/4/3 60/4/3 59/4/3
f 63/1/3 61/1/3 60/1/3
f 63/4/3 60/4/3 62/4/3
f 64/4/3 57/4/3 61/4/3
f 64/1/3 61/1/3 63/1/3
f 65/2/3 58/2/3 57/2/3
f 65/4/3 57/4/3 64/4/3
f 66/2/3 58/2/3 65/2/3
f 72/4/3 68/4/3 67/4/3
f 73/4/3 68/4/3 72/4/3
f 74/1/3 69/1/3 68/1/3
f 74/4/3 68/4/3 73/4/3
f 75/4/3 70/4/3 69/4/3
f 75/1/3 69/1/3 74/1/3
f 76/2/3 71/2/3 70/2/3
f 76/4/3 70/4/3 75/4/3
f 77/2/3 71/2/3 76/2/3
f 83/4/3 79/4/3 78/4/3
f 84/1/3 80/1/3 79/1/3
f 84/4/3 79/4/3 83/4/3
f 85/4/3 81/4/3 80/4/3
f 85/1/3 80/1/3 84/1/3
f 86/2/3 82/2/3 81/2/3
f 86/4/3 81/4/3 85/4/3
f 87/2/3 82/2/3 86/2/3
f 88/4/4 89/4/4 91/4/4
f 89/2/4 90/2/4 92/2/4
f 91/4/4 89/4/4 92/4/4
f 92/2/4 90/2/4 93/2/4
f 94/4/4 95/4/4 97/4/4
f 95/2/4 96/2/4 98/2/4
f 97/4/4 95/4/4 98/4/4
f 98/2/4 96/2/4 99/2/4
f 100/4/4 101/4/4 103/4/4
f 101/2/4 102/2/4 104/2/4
f 103/4/4 101/4/4 104/4/4
f 104/2/4 102/2/4 105/2/4
f 109/4/5 107/4/5 106/4/5
f 110/4/5 107/4/5 109/4/5
f 112/4/5 109/4/5 108/4/5
f 112/4/5 111/4/5 110/4/5
f 112/4/5 110/4/5 109/4/5
f 113/4/5 111/4/5 112/4/5
f 114/4/5 111/4/5 113/4/5
f 115/4/5 111/4/5 114/4/5
f 116/4/5 114/4/5 113/4/5
f 117/4/5 114/4/5 116/4/5
f 118/2/6 119/2/6 121/2/6
f 121/2/6 119/2/6 122/2/6
f 120/2/6 121/2/6 124/2/6
f 122/2/6 123/2/6 124/2/6
f 121/2/6 122/2/6 124/2/6
f 124/2/6 123/2/6 125/2/6
f 120/2/6 124/2/6 126/2/6
f 126/2/6 124/2/6 127/2/6
f 124/3/6 125/3/6 128/3/6
f 127/2/6 124/2/6 128/2/6
f 125/2/6 123/2/6 129/2/6
f 128/3/6 125/3/6 129/3/6
f 129/2/6 123/2/6 130/2/6
f 127/2/6 128/2/6 131/2/6
f 128/2/6 129/2/6 131/2/6
f 131/2/6 129/2/6 132/2/6
