# MagicaVoxel @ Ephtracy

# group
o 

# material
mtllib pytlikbramborkuasi.mtl
usemtl palette

# normals
vn -1 0 0
vn 1 0 0
vn 0 0 1
vn 0 0 -1
vn 0 -1 0
vn 0 1 0

# texcoords
vt 0.880859 0.5
vt 0.919922 0.5

# verts
v -0.4 0 0.2
v -0.4 0 -0.1
v -0.4 0.2 0.2
v -0.4 0.2 -0.1
v -0.3 0 0.5
v -0.3 0 0.2
v -0.3 0.1 0.5
v -0.3 0.1 0.2
v -0.2 0 0.7
v -0.2 0 0.5
v -0.2 0.1 0.5
v -0.2 0.1 0.4
v -0.2 0.1 0.2
v -0.2 0.2 0.7
v -0.2 0.2 0.5
v -0.2 0.2 0.4
v -0.2 0.2 0.2
v -0.1 0.1 0.5
v -0.1 0.1 0.4
v -0.1 0.1 0.2
v -0.1 0.1 0.1
v -0.1 0.2 0.5
v -0.1 0.2 0.4
v -0.1 0.2 0.2
v -0.1 0.2 0.1
v 0 0.1 0.4
v 0 0.1 0.2
v 0 0.2 0.4
v 0 0.2 0.2
v 0 0.2 -5.96046e-08
v 0 0.2 -0.1
v 0 0.3 -5.96046e-08
v 0 0.3 -0.1
v -0.2 0.1 0.2
v -0.2 0.1 0.1
v -0.2 0.2 0.2
v -0.2 0.2 0.1
v -0.1 0.1 0.4
v -0.1 0.1 0.2
v -0.1 0.2 0.4
v -0.1 0.2 0.2
v 0 0.1 0.1
v 0 0.1 -5.96046e-08
v 0 0.2 0.1
v 0 0.2 -5.96046e-08
v 0.1 0 0.3
v 0.1 0 -0.1
v 0.1 0.1 0.3
v 0.1 0.1 0.1
v 0.1 0.1 -5.96046e-08
v 0.1 0.2 0.3
v 0.1 0.2 0.1
v 0.1 0.3 -5.96046e-08
v 0.1 0.3 -0.1
v 0.2 0 0.7
v 0.2 0 0.3
v 0.2 0.2 0.7
v 0.2 0.2 0.3
v -0.2 0 0.7
v -0.2 0.2 0.7
v 0.2 0 0.7
v 0.2 0.2 0.7
v -0.3 0 0.5
v -0.3 0.1 0.5
v -0.2 0 0.5
v -0.2 0.1 0.5
v -0.2 0.1 0.4
v -0.2 0.2 0.4
v -0.1 0.1 0.4
v -0.1 0.2 0.4
v -0.4 0 0.2
v -0.4 0.2 0.2
v -0.3 0 0.2
v -0.3 0.1 0.2
v -0.2 0.1 0.2
v -0.2 0.2 0.2
v -0.1 0.1 0.2
v -0.1 0.2 0.2
v 0 0.1 0.2
v 0 0.2 0.2
v -0.2 0.1 0.1
v -0.2 0.2 0.1
v -0.1 0.1 0.1
v -0.1 0.2 0.1
v 0 0.1 -5.96046e-08
v 0 0.2 -5.96046e-08
v 0 0.3 -5.96046e-08
v 0.1 0.1 -5.96046e-08
v 0.1 0.3 -5.96046e-08
v -0.2 0.1 0.5
v -0.2 0.2 0.5
v -0.1 0.1 0.5
v -0.1 0.2 0.5
v -0.1 0.1 0.4
v -0.1 0.2 0.4
v 0 0.1 0.4
v 0 0.2 0.4
v 0.1 0 0.3
v 0.1 0.1 0.3
v 0.1 0.2 0.3
v 0.2 0 0.3
v 0.2 0.2 0.3
v -0.2 0.1 0.2
v -0.2 0.2 0.2
v -0.1 0.1 0.2
v -0.1 0.2 0.2
v 0 0.1 0.1
v 0 0.2 0.1
v 0.1 0.1 0.1
v 0.1 0.2 0.1
v -0.4 0 -0.1
v -0.4 0.2 -0.1
v 0 0.2 -0.1
v 0 0.3 -0.1
v 0.1 0 -0.1
v 0.1 0.3 -0.1
v -0.2 0 0.7
v 0.2 0 0.7
v -0.3 0 0.5
v -0.2 0 0.5
v 0.1 0 0.3
v 0.2 0 0.3
v -0.4 0 0.2
v -0.3 0 0.2
v -0.4 0 -0.1
v 0.1 0 -0.1
v -0.3 0.1 0.5
v -0.2 0.1 0.5
v -0.1 0.1 0.5
v -0.2 0.1 0.4
v -0.1 0.1 0.4
v 0 0.1 0.4
v -0.3 0.1 0.2
v -0.2 0.1 0.2
v -0.1 0.1 0.2
v 0 0.1 0.2
v -0.2 0.1 0.1
v -0.1 0.1 0.1
v 0 0.1 0.1
v 0.1 0.1 0.1
v 0 0.1 -5.96046e-08
v 0.1 0.1 -5.96046e-08
v -0.2 0.2 0.7
v 0.2 0.2 0.7
v -0.2 0.2 0.5
v -0.1 0.2 0.5
v 0 0.2 0.5
v -0.2 0.2 0.4
v -0.1 0.2 0.4
v 0 0.2 0.4
v 0.1 0.2 0.4
v 0.1 0.2 0.3
v 0.2 0.2 0.3
v -0.4 0.2 0.2
v -0.2 0.2 0.2
v -0.1 0.2 0.2
v 0 0.2 0.2
v -0.2 0.2 0.1
v -0.1 0.2 0.1
v 0 0.2 0.1
v 0.1 0.2 0.1
v 0 0.2 -5.96046e-08
v -0.4 0.2 -0.1
v 0 0.2 -0.1
v 0 0.3 -5.96046e-08
v 0.1 0.3 -5.96046e-08
v 0 0.3 -0.1
v 0.1 0.3 -0.1

# faces
f 3/2/1 2/2/1 1/2/1
f 4/2/1 2/2/1 3/2/1
f 7/2/1 6/2/1 5/2/1
f 8/2/1 6/2/1 7/2/1
f 11/2/1 10/2/1 9/2/1
f 14/2/1 11/2/1 9/2/1
f 15/2/1 11/2/1 14/2/1
f 16/1/1 13/1/1 12/1/1
f 17/1/1 13/1/1 16/1/1
f 22/1/1 19/1/1 18/1/1
f 23/1/1 19/1/1 22/1/1
f 24/1/1 21/1/1 20/1/1
f 25/1/1 21/1/1 24/1/1
f 28/1/1 27/1/1 26/1/1
f 29/1/1 27/1/1 28/1/1
f 32/2/1 31/2/1 30/2/1
f 33/2/1 31/2/1 32/2/1
f 34/2/2 35/2/2 36/2/2
f 36/2/2 35/2/2 37/2/2
f 38/1/2 39/1/2 40/1/2
f 40/1/2 39/1/2 41/1/2
f 42/2/2 43/2/2 44/2/2
f 44/2/2 43/2/2 45/2/2
f 46/2/2 47/2/2 48/2/2
f 48/2/2 47/2/2 49/2/2
f 49/2/2 47/2/2 50/2/2
f 48/1/2 49/1/2 51/1/2
f 51/1/2 49/1/2 52/1/2
f 50/2/2 47/2/2 53/2/2
f 53/2/2 47/2/2 54/2/2
f 55/2/2 56/2/2 57/2/2
f 57/2/2 56/2/2 58/2/2
f 61/2/3 60/2/3 59/2/3
f 62/2/3 60/2/3 61/2/3
f 65/2/3 64/2/3 63/2/3
f 66/2/3 64/2/3 65/2/3
f 69/1/3 68/1/3 67/1/3
f 70/1/3 68/1/3 69/1/3
f 73/2/3 72/2/3 71/2/3
f 74/2/3 72/2/3 73/2/3
f 75/2/3 72/2/3 74/2/3
f 76/2/3 72/2/3 75/2/3
f 79/1/3 78/1/3 77/1/3
f 80/1/3 78/1/3 79/1/3
f 83/2/3 82/2/3 81/2/3
f 84/2/3 82/2/3 83/2/3
f 88/2/3 86/2/3 85/2/3
f 88/2/3 87/2/3 86/2/3
f 89/2/3 87/2/3 88/2/3
f 90/2/4 91/2/4 92/2/4
f 92/2/4 91/2/4 93/2/4
f 94/1/4 95/1/4 96/1/4
f 96/1/4 95/1/4 97/1/4
f 98/2/4 99/2/4 101/2/4
f 99/2/4 100/2/4 101/2/4
f 101/2/4 100/2/4 102/2/4
f 103/1/4 104/1/4 105/1/4
f 105/1/4 104/1/4 106/1/4
f 107/1/4 108/1/4 109/1/4
f 109/1/4 108/1/4 110/1/4
f 111/2/4 112/2/4 113/2/4
f 111/2/4 113/2/4 115/2/4
f 113/2/4 114/2/4 115/2/4
f 115/2/4 114/2/4 116/2/4
f 120/2/5 118/2/5 117/2/5
f 121/2/5 118/2/5 120/2/5
f 121/2/5 120/2/5 119/2/5
f 122/2/5 118/2/5 121/2/5
f 124/2/5 121/2/5 119/2/5
f 125/2/5 124/2/5 123/2/5
f 126/2/5 121/2/5 124/2/5
f 126/2/5 124/2/5 125/2/5
f 127/2/6 128/2/6 130/2/6
f 128/2/6 129/2/6 130/2/6
f 130/2/6 129/2/6 131/2/6
f 127/2/6 130/2/6 133/2/6
f 133/2/6 130/2/6 134/2/6
f 131/2/6 132/2/6 135/2/6
f 135/2/6 132/2/6 136/2/6
f 134/2/6 135/2/6 137/2/6
f 137/2/6 135/2/6 138/2/6
f 139/2/6 140/2/6 141/2/6
f 141/2/6 140/2/6 142/2/6
f 143/2/6 144/2/6 145/2/6
f 145/2/6 144/2/6 146/2/6
f 146/2/6 144/2/6 147/2/6
f 146/1/6 147/1/6 149/1/6
f 147/2/6 144/2/6 150/2/6
f 149/1/6 147/1/6 150/1/6
f 150/2/6 144/2/6 151/2/6
f 151/2/6 144/2/6 152/2/6
f 150/1/6 151/1/6 152/1/6
f 152/2/6 144/2/6 153/2/6
f 148/1/6 149/1/6 155/1/6
f 155/1/6 149/1/6 156/1/6
f 150/1/6 152/1/6 157/1/6
f 154/2/6 155/2/6 158/2/6
f 156/1/6 157/1/6 159/1/6
f 157/1/6 152/1/6 160/1/6
f 159/1/6 157/1/6 160/1/6
f 160/1/6 152/1/6 161/1/6
f 158/2/6 159/2/6 162/2/6
f 159/2/6 160/2/6 162/2/6
f 154/2/6 158/2/6 163/2/6
f 158/2/6 162/2/6 163/2/6
f 163/2/6 162/2/6 164/2/6
f 165/2/6 166/2/6 167/2/6
f 167/2/6 166/2/6 168/2/6
