# MagicaVoxel @ Ephtracy

# group
o 

# material
mtllib brokaACC.mtl
usemtl palette

# normals
vn -1 0 0
vn 1 0 0
vn 0 0 1
vn 0 0 -1
vn 0 -1 0
vn 0 1 0

# texcoords
vt 0.677734 0.5
vt 0.681641 0.5
vt 0.876953 0.5
vt 0.974609 0.5
vt 0.978516 0.5
vt 0.982422 0.5
vt 0.986328 0.5
vt 0.990234 0.5
vt 0.994141 0.5

# verts
v -1.2 0.2 1.41561e-07
v -1.2 0.2 -0.3
v -1.2 0.5 1.41561e-07
v -1.2 0.5 -0.3
v -1 0.5 1.41561e-07
v -1 0.5 -0.3
v -1 0.6 1.41561e-07
v -1 0.6 -0.3
v -0.7 0.2 -0.0999999
v -0.7 0.2 -0.2
v -0.7 0.4 -0.0999999
v -0.7 0.4 -0.2
v -0.6 0.1 -0.0999999
v -0.6 0.1 -0.2
v -0.6 0.2 -0.0999999
v -0.6 0.2 -0.2
v -0.5 0.3 -0.0999999
v -0.5 0.3 -0.2
v -0.5 0.4 -0.0999999
v -0.5 0.4 -0.2
v -0.5 0.6 1.41561e-07
v -0.5 0.6 -0.3
v -0.5 0.7 1.41561e-07
v -0.5 0.7 -0.3
v -0.4 0.2 -0.0999999
v -0.4 0.2 -0.2
v -0.4 0.3 -0.0999999
v -0.4 0.3 -0.2
v -0.4 0.7 1.41561e-07
v -0.4 0.7 -0.3
v -0.4 0.8 1.41561e-07
v -0.4 0.8 -0.3
v -0.2 0.2 -0.0999999
v -0.2 0.2 -0.2
v -0.2 0.4 -0.0999999
v -0.2 0.4 -0.2
v -0.2 0.8 1.41561e-07
v -0.2 0.8 -0.0999999
v -0.2 0.8 -0.2
v -0.2 0.8 -0.3
v -0.2 0.9 1.41561e-07
v -0.2 0.9 -0.0999999
v -0.2 0.9 -0.2
v -0.2 0.9 -0.3
v 0.2 0.3 1.41561e-07
v 0.2 0.3 -0.3
v 0.2 0.4 1.41561e-07
v 0.2 0.4 -0.3
v 1.9 0.8 -0.0999999
v 1.9 0.8 -0.2
v 1.9 0.9 -0.0999999
v 1.9 0.9 -0.2
v -1 0.2 1.41561e-07
v -1 0.2 -0.3
v -1 0.3 1.41561e-07
v -1 0.3 -0.3
v -0.9 0.3 1.41561e-07
v -0.9 0.3 -0.3
v -0.9 0.4 1.41561e-07
v -0.9 0.4 -0.3
v -0.6 0.3 -0.0999999
v -0.6 0.3 -0.2
v -0.6 0.4 -0.0999999
v -0.6 0.4 -0.2
v -0.5 0.2 -0.0999999
v -0.5 0.2 -0.2
v -0.5 0.3 -0.0999999
v -0.5 0.3 -0.2
v -0.4 0.3 -0.0999999
v -0.4 0.3 -0.2
v -0.4 0.4 -0.0999999
v -0.4 0.4 -0.2
v -0.3 0.2 -0.0999999
v -0.3 0.2 -0.2
v -0.3 0.3 -0.0999999
v -0.3 0.3 -0.2
v -0.1 0.1 -0.0999999
v -0.1 0.1 -0.2
v -0.1 0.4 -0.0999999
v -0.1 0.4 -0.2
v -0.1 0.8 1.41561e-07
v -0.1 0.8 -0.0999999
v -0.1 0.8 -0.2
v -0.1 0.8 -0.3
v -0.1 0.9 1.41561e-07
v -0.1 0.9 -0.0999999
v -0.1 0.9 -0.2
v -0.1 0.9 -0.3
v 0.9 0.3 1.41561e-07
v 0.9 0.3 -0.3
v 0.9 0.4 1.41561e-07
v 0.9 0.4 -0.3
v 1.4 0.4 1.41561e-07
v 1.4 0.4 -0.3
v 1.4 0.6 1.41561e-07
v 1.4 0.6 -0.3
v 2 0.6 1.41561e-07
v 2 0.6 -0.3
v 2 0.8 1.41561e-07
v 2 0.8 -0.0999999
v 2 0.8 -0.2
v 2 0.8 -0.3
v 2 0.9 -0.0999999
v 2 0.9 -0.2
v -1.2 0.2 1.41561e-07
v -1.2 0.5 1.41561e-07
v -1 0.2 1.41561e-07
v -1 0.3 1.41561e-07
v -1 0.5 1.41561e-07
v -1 0.6 1.41561e-07
v -0.9 0.3 1.41561e-07
v -0.9 0.4 1.41561e-07
v -0.5 0.4 1.41561e-07
v -0.5 0.6 1.41561e-07
v -0.5 0.7 1.41561e-07
v -0.4 0.7 1.41561e-07
v -0.4 0.8 1.41561e-07
v -0.2 0.6 1.41561e-07
v -0.2 0.7 1.41561e-07
v -0.2 0.8 1.41561e-07
v -0.2 0.9 1.41561e-07
v -0.1 0.8 1.41561e-07
v -0.1 0.9 1.41561e-07
v 0.0999998 0.6 1.41561e-07
v 0.0999998 0.7 1.41561e-07
v 0.2 0.3 1.41561e-07
v 0.2 0.4 1.41561e-07
v 0.2 0.6 1.41561e-07
v 0.2 0.8 1.41561e-07
v 0.3 0.3 1.41561e-07
v 0.3 0.5 1.41561e-07
v 0.4 0.3 1.41561e-07
v 0.4 0.5 1.41561e-07
v 0.5 0.3 1.41561e-07
v 0.5 0.5 1.41561e-07
v 0.6 0.3 1.41561e-07
v 0.6 0.5 1.41561e-07
v 0.7 0.3 1.41561e-07
v 0.7 0.5 1.41561e-07
v 0.8 0.3 1.41561e-07
v 0.8 0.5 1.41561e-07
v 0.9 0.3 1.41561e-07
v 0.9 0.4 1.41561e-07
v 0.9 0.6 1.41561e-07
v 1.3 0.4 1.41561e-07
v 1.3 0.6 1.41561e-07
v 1.4 0.4 1.41561e-07
v 1.4 0.6 1.41561e-07
v 2 0.6 1.41561e-07
v 2 0.8 1.41561e-07
v -0.7 0.2 -0.0999999
v -0.7 0.4 -0.0999999
v -0.6 0.1 -0.0999999
v -0.6 0.2 -0.0999999
v -0.6 0.3 -0.0999999
v -0.6 0.4 -0.0999999
v -0.5 0.2 -0.0999999
v -0.5 0.3 -0.0999999
v -0.5 0.4 -0.0999999
v -0.4 0.2 -0.0999999
v -0.4 0.3 -0.0999999
v -0.4 0.4 -0.0999999
v -0.3 0.2 -0.0999999
v -0.3 0.3 -0.0999999
v -0.2 0.2 -0.0999999
v -0.2 0.4 -0.0999999
v -0.1 0.1 -0.0999999
v -0.1 0.4 -0.0999999
v 1.9 0.8 -0.0999999
v 1.9 0.9 -0.0999999
v 2 0.8 -0.0999999
v 2 0.9 -0.0999999
v -0.2 0.8 -0.2
v -0.2 0.9 -0.2
v -0.1 0.8 -0.2
v -0.1 0.9 -0.2
v -0.2 0.8 -0.0999999
v -0.2 0.9 -0.0999999
v -0.1 0.8 -0.0999999
v -0.1 0.9 -0.0999999
v -0.7 0.2 -0.2
v -0.7 0.4 -0.2
v -0.6 0.1 -0.2
v -0.6 0.2 -0.2
v -0.6 0.3 -0.2
v -0.6 0.4 -0.2
v -0.5 0.2 -0.2
v -0.5 0.3 -0.2
v -0.5 0.4 -0.2
v -0.4 0.2 -0.2
v -0.4 0.3 -0.2
v -0.4 0.4 -0.2
v -0.3 0.2 -0.2
v -0.3 0.3 -0.2
v -0.2 0.2 -0.2
v -0.2 0.4 -0.2
v -0.1 0.1 -0.2
v -0.1 0.4 -0.2
v 1.9 0.8 -0.2
v 1.9 0.9 -0.2
v 2 0.8 -0.2
v 2 0.9 -0.2
v -1.2 0.2 -0.3
v -1.2 0.5 -0.3
v -1 0.2 -0.3
v -1 0.3 -0.3
v -1 0.5 -0.3
v -1 0.6 -0.3
v -0.9 0.3 -0.3
v -0.9 0.4 -0.3
v -0.5 0.4 -0.3
v -0.5 0.6 -0.3
v -0.5 0.7 -0.3
v -0.4 0.7 -0.3
v -0.4 0.8 -0.3
v -0.2 0.8 -0.3
v -0.2 0.9 -0.3
v -0.1 0.8 -0.3
v -0.1 0.9 -0.3
v 0.2 0.3 -0.3
v 0.2 0.4 -0.3
v 0.2 0.6 -0.3
v 0.2 0.8 -0.3
v 0.3 0.3 -0.3
v 0.3 0.5 -0.3
v 0.4 0.3 -0.3
v 0.4 0.5 -0.3
v 0.5 0.3 -0.3
v 0.5 0.5 -0.3
v 0.6 0.3 -0.3
v 0.6 0.5 -0.3
v 0.7 0.3 -0.3
v 0.7 0.5 -0.3
v 0.8 0.3 -0.3
v 0.8 0.5 -0.3
v 0.9 0.3 -0.3
v 0.9 0.4 -0.3
v 0.9 0.6 -0.3
v 1.3 0.4 -0.3
v 1.3 0.6 -0.3
v 1.4 0.4 -0.3
v 1.4 0.6 -0.3
v 2 0.6 -0.3
v 2 0.8 -0.3
v -0.6 0.1 -0.0999999
v -0.1 0.1 -0.0999999
v -0.6 0.1 -0.2
v -0.1 0.1 -0.2
v -1.2 0.2 1.41561e-07
v -1 0.2 1.41561e-07
v -0.7 0.2 -0.0999999
v -0.6 0.2 -0.0999999
v -0.7 0.2 -0.2
v -0.6 0.2 -0.2
v -1.2 0.2 -0.3
v -1 0.2 -0.3
v -1 0.3 1.41561e-07
v -0.9 0.3 1.41561e-07
v 0.2 0.3 1.41561e-07
v 0.3 0.3 1.41561e-07
v 0.4 0.3 1.41561e-07
v 0.5 0.3 1.41561e-07
v 0.6 0.3 1.41561e-07
v 0.7 0.3 1.41561e-07
v 0.8 0.3 1.41561e-07
v 0.9 0.3 1.41561e-07
v -0.5 0.3 -0.0999999
v -0.4 0.3 -0.0999999
v -0.5 0.3 -0.2
v -0.4 0.3 -0.2
v -1 0.3 -0.3
v -0.9 0.3 -0.3
v 0.2 0.3 -0.3
v 0.3 0.3 -0.3
v 0.4 0.3 -0.3
v 0.5 0.3 -0.3
v 0.6 0.3 -0.3
v 0.7 0.3 -0.3
v 0.8 0.3 -0.3
v 0.9 0.3 -0.3
v -0.9 0.4 1.41561e-07
v -0.5 0.4 1.41561e-07
v 0.2 0.4 1.41561e-07
v 0.9 0.4 1.41561e-07
v 1.3 0.4 1.41561e-07
v 1.4 0.4 1.41561e-07
v -0.7 0.4 -0.0999999
v -0.6 0.4 -0.0999999
v -0.5 0.4 -0.0999999
v -0.4 0.4 -0.0999999
v -0.2 0.4 -0.0999999
v -0.1 0.4 -0.0999999
v -0.7 0.4 -0.2
v -0.6 0.4 -0.2
v -0.5 0.4 -0.2
v -0.4 0.4 -0.2
v -0.2 0.4 -0.2
v -0.1 0.4 -0.2
v -0.9 0.4 -0.3
v -0.5 0.4 -0.3
v 0.2 0.4 -0.3
v 0.9 0.4 -0.3
v 1.3 0.4 -0.3
v 1.4 0.4 -0.3
v 1.4 0.6 1.41561e-07
v 2 0.6 1.41561e-07
v 1.4 0.6 -0.3
v 2 0.6 -0.3
v -0.5 0.2 -0.0999999
v -0.4 0.2 -0.0999999
v -0.3 0.2 -0.0999999
v -0.2 0.2 -0.0999999
v -0.5 0.2 -0.2
v -0.4 0.2 -0.2
v -0.3 0.2 -0.2
v -0.2 0.2 -0.2
v -0.6 0.3 -0.0999999
v -0.5 0.3 -0.0999999
v -0.4 0.3 -0.0999999
v -0.3 0.3 -0.0999999
v -0.6 0.3 -0.2
v -0.5 0.3 -0.2
v -0.4 0.3 -0.2
v -0.3 0.3 -0.2
v -1.2 0.5 1.41561e-07
v -1 0.5 1.41561e-07
v -1.2 0.5 -0.3
v -1 0.5 -0.3
v -1 0.6 1.41561e-07
v -0.5 0.6 1.41561e-07
v -1 0.6 -0.3
v -0.5 0.6 -0.3
v -0.5 0.7 1.41561e-07
v -0.4 0.7 1.41561e-07
v -0.5 0.7 -0.3
v -0.4 0.7 -0.3
v -0.4 0.8 1.41561e-07
v -0.2 0.8 1.41561e-07
v -0.1 0.8 1.41561e-07
v 0.2 0.8 1.41561e-07
v 2 0.8 1.41561e-07
v -0.2 0.8 -0.0999999
v -0.1 0.8 -0.0999999
v 1.9 0.8 -0.0999999
v 2 0.8 -0.0999999
v -0.2 0.8 -0.2
v -0.1 0.8 -0.2
v 1.9 0.8 -0.2
v 2 0.8 -0.2
v -0.4 0.8 -0.3
v -0.2 0.8 -0.3
v -0.1 0.8 -0.3
v 0.2 0.8 -0.3
v 2 0.8 -0.3
v -0.2 0.9 1.41561e-07
v -0.1 0.9 1.41561e-07
v -0.2 0.9 -0.0999999
v -0.1 0.9 -0.0999999
v 1.9 0.9 -0.0999999
v 2 0.9 -0.0999999
v -0.2 0.9 -0.2
v -0.1 0.9 -0.2
v 1.9 0.9 -0.2
v 2 0.9 -0.2
v -0.2 0.9 -0.3
v -0.1 0.9 -0.3

# faces
f 3/1/1 2/1/1 1/1/1
f 4/1/1 2/1/1 3/1/1
f 7/1/1 6/1/1 5/1/1
f 8/1/1 6/1/1 7/1/1
f 11/9/1 10/9/1 9/9/1
f 12/9/1 10/9/1 11/9/1
f 15/9/1 14/9/1 13/9/1
f 16/9/1 14/9/1 15/9/1
f 19/6/1 18/6/1 17/6/1
f 20/6/1 18/6/1 19/6/1
f 23/4/1 22/4/1 21/4/1
f 24/4/1 22/4/1 23/4/1
f 27/6/1 26/6/1 25/6/1
f 28/6/1 26/6/1 27/6/1
f 31/4/1 30/4/1 29/4/1
f 32/4/1 30/4/1 31/4/1
f 35/9/1 34/9/1 33/9/1
f 36/9/1 34/9/1 35/9/1
f 41/8/1 38/8/1 37/8/1
f 42/8/1 38/8/1 41/8/1
f 43/8/1 40/8/1 39/8/1
f 44/8/1 40/8/1 43/8/1
f 47/2/1 46/2/1 45/2/1
f 48/2/1 46/2/1 47/2/1
f 51/8/1 50/8/1 49/8/1
f 52/8/1 50/8/1 51/8/1
f 53/1/2 54/1/2 55/1/2
f 55/1/2 54/1/2 56/1/2
f 57/1/2 58/1/2 59/1/2
f 59/1/2 58/1/2 60/1/2
f 61/9/2 62/9/2 63/9/2
f 63/9/2 62/9/2 64/9/2
f 65/9/2 66/9/2 67/9/2
f 67/9/2 66/9/2 68/9/2
f 69/6/2 70/6/2 71/6/2
f 71/6/2 70/6/2 72/6/2
f 73/6/2 74/6/2 75/6/2
f 75/6/2 74/6/2 76/6/2
f 77/9/2 78/9/2 79/9/2
f 79/9/2 78/9/2 80/9/2
f 81/8/2 82/8/2 85/8/2
f 85/8/2 82/8/2 86/8/2
f 83/8/2 84/8/2 87/8/2
f 87/8/2 84/8/2 88/8/2
f 89/2/2 90/2/2 91/2/2
f 91/2/2 90/2/2 92/2/2
f 93/3/2 94/3/2 95/3/2
f 95/3/2 94/3/2 96/3/2
f 97/5/2 98/5/2 99/5/2
f 99/5/2 98/5/2 100/5/2
f 100/5/2 98/5/2 101/5/2
f 101/5/2 98/5/2 102/5/2
f 100/8/2 101/8/2 103/8/2
f 103/8/2 101/8/2 104/8/2
f 107/1/3 106/1/3 105/1/3
f 108/1/3 106/1/3 107/1/3
f 109/1/3 106/1/3 108/1/3
f 111/1/3 110/1/3 109/1/3
f 111/1/3 109/1/3 108/1/3
f 112/1/3 110/1/3 111/1/3
f 113/1/3 110/1/3 112/1/3
f 114/1/3 110/1/3 113/1/3
f 116/4/3 114/4/3 113/4/3
f 116/4/3 115/4/3 114/4/3
f 118/4/3 116/4/3 113/4/3
f 118/4/3 117/4/3 116/4/3
f 119/4/3 117/4/3 118/4/3
f 120/4/3 117/4/3 119/4/3
f 122/4/3 120/4/3 119/4/3
f 122/8/3 121/8/3 120/8/3
f 123/8/3 121/8/3 122/8/3
f 124/4/3 118/4/3 113/4/3
f 124/7/3 119/7/3 118/7/3
f 125/4/3 122/4/3 119/4/3
f 125/7/3 119/7/3 124/7/3
f 127/4/3 124/4/3 113/4/3
f 127/4/3 125/4/3 124/4/3
f 128/4/3 125/4/3 127/4/3
f 129/4/3 122/4/3 125/4/3
f 129/4/3 125/4/3 128/4/3
f 130/2/3 128/2/3 127/2/3
f 130/2/3 127/2/3 126/2/3
f 131/2/3 128/2/3 130/2/3
f 132/9/3 131/9/3 130/9/3
f 133/2/3 128/2/3 131/2/3
f 133/9/3 131/9/3 132/9/3
f 134/2/3 133/2/3 132/2/3
f 135/2/3 128/2/3 133/2/3
f 135/2/3 133/2/3 134/2/3
f 136/9/3 135/9/3 134/9/3
f 137/2/3 128/2/3 135/2/3
f 137/9/3 135/9/3 136/9/3
f 138/2/3 137/2/3 136/2/3
f 139/2/3 128/2/3 137/2/3
f 139/2/3 137/2/3 138/2/3
f 140/9/3 139/9/3 138/9/3
f 141/2/3 128/2/3 139/2/3
f 141/9/3 139/9/3 140/9/3
f 142/2/3 141/2/3 140/2/3
f 143/2/3 141/2/3 142/2/3
f 144/5/3 129/5/3 128/5/3
f 144/2/3 141/2/3 143/2/3
f 144/2/3 128/2/3 141/2/3
f 145/7/3 144/7/3 143/7/3
f 146/5/3 129/5/3 144/5/3
f 146/7/3 144/7/3 145/7/3
f 147/3/3 146/3/3 145/3/3
f 148/5/3 129/5/3 146/5/3
f 148/3/3 146/3/3 147/3/3
f 149/5/3 129/5/3 148/5/3
f 150/5/3 129/5/3 149/5/3
f 154/9/3 152/9/3 151/9/3
f 155/9/3 152/9/3 154/9/3
f 156/9/3 152/9/3 155/9/3
f 157/9/3 154/9/3 153/9/3
f 157/9/3 155/9/3 154/9/3
f 158/9/3 155/9/3 157/9/3
f 160/9/3 157/9/3 153/9/3
f 161/6/3 159/6/3 158/6/3
f 162/6/3 159/6/3 161/6/3
f 163/9/3 160/9/3 153/9/3
f 163/6/3 161/6/3 160/6/3
f 164/6/3 161/6/3 163/6/3
f 165/9/3 163/9/3 153/9/3
f 167/9/3 165/9/3 153/9/3
f 167/9/3 166/9/3 165/9/3
f 168/9/3 166/9/3 167/9/3
f 171/8/3 170/8/3 169/8/3
f 172/8/3 170/8/3 171/8/3
f 175/8/3 174/8/3 173/8/3
f 176/8/3 174/8/3 175/8/3
f 177/8/4 178/8/4 179/8/4
f 179/8/4 178/8/4 180/8/4
f 181/9/4 182/9/4 184/9/4
f 184/9/4 182/9/4 185/9/4
f 185/9/4 182/9/4 186/9/4
f 183/9/4 184/9/4 187/9/4
f 184/9/4 185/9/4 187/9/4
f 187/9/4 185/9/4 188/9/4
f 183/9/4 187/9/4 190/9/4
f 188/6/4 189/6/4 191/6/4
f 191/6/4 189/6/4 192/6/4
f 183/9/4 190/9/4 193/9/4
f 190/6/4 191/6/4 193/6/4
f 193/6/4 191/6/4 194/6/4
f 183/9/4 193/9/4 195/9/4
f 183/9/4 195/9/4 197/9/4
f 195/9/4 196/9/4 197/9/4
f 197/9/4 196/9/4 198/9/4
f 199/8/4 200/8/4 201/8/4
f 201/8/4 200/8/4 202/8/4
f 203/1/4 204/1/4 205/1/4
f 205/1/4 204/1/4 206/1/4
f 206/1/4 204/1/4 207/1/4
f 207/1/4 208/1/4 209/1/4
f 206/1/4 207/1/4 209/1/4
f 209/1/4 208/1/4 210/1/4
f 210/1/4 208/1/4 211/1/4
f 211/1/4 208/1/4 212/1/4
f 211/4/4 212/4/4 214/4/4
f 212/4/4 213/4/4 214/4/4
f 214/4/4 215/4/4 216/4/4
f 214/4/4 216/4/4 218/4/4
f 216/8/4 217/8/4 218/8/4
f 218/8/4 217/8/4 219/8/4
f 211/4/4 214/4/4 221/4/4
f 214/4/4 218/4/4 221/4/4
f 221/4/4 218/4/4 222/4/4
f 222/4/4 218/4/4 223/4/4
f 220/2/4 221/2/4 224/2/4
f 221/2/4 222/2/4 224/2/4
f 224/2/4 222/2/4 225/2/4
f 224/9/4 225/9/4 226/9/4
f 225/2/4 222/2/4 227/2/4
f 226/9/4 225/9/4 227/9/4
f 226/2/4 227/2/4 228/2/4
f 227/2/4 222/2/4 229/2/4
f 228/2/4 227/2/4 229/2/4
f 228/9/4 229/9/4 230/9/4
f 229/2/4 222/2/4 231/2/4
f 230/9/4 229/9/4 231/9/4
f 230/2/4 231/2/4 232/2/4
f 231/2/4 222/2/4 233/2/4
f 232/2/4 231/2/4 233/2/4
f 232/9/4 233/9/4 234/9/4
f 233/2/4 222/2/4 235/2/4
f 234/9/4 233/9/4 235/9/4
f 234/2/4 235/2/4 236/2/4
f 236/2/4 235/2/4 237/2/4
f 222/5/4 223/5/4 238/5/4
f 237/2/4 235/2/4 238/2/4
f 235/2/4 222/2/4 238/2/4
f 237/7/4 238/7/4 239/7/4
f 238/5/4 223/5/4 240/5/4
f 239/7/4 238/7/4 240/7/4
f 239/3/4 240/3/4 241/3/4
f 240/5/4 223/5/4 242/5/4
f 241/3/4 240/3/4 242/3/4
f 242/5/4 223/5/4 243/5/4
f 243/5/4 223/5/4 244/5/4
f 247/9/5 246/9/5 245/9/5
f 248/9/5 246/9/5 247/9/5
f 253/9/5 252/9/5 251/9/5
f 254/9/5 252/9/5 253/9/5
f 255/1/5 250/1/5 249/1/5
f 256/1/5 250/1/5 255/1/5
f 269/6/5 268/6/5 267/6/5
f 270/6/5 268/6/5 269/6/5
f 271/1/5 258/1/5 257/1/5
f 272/1/5 258/1/5 271/1/5
f 273/2/5 260/2/5 259/2/5
f 274/9/5 261/9/5 260/9/5
f 274/2/5 260/2/5 273/2/5
f 275/2/5 262/2/5 261/2/5
f 275/9/5 261/9/5 274/9/5
f 276/9/5 263/9/5 262/9/5
f 276/2/5 262/2/5 275/2/5
f 277/2/5 264/2/5 263/2/5
f 277/9/5 263/9/5 276/9/5
f 278/9/5 265/9/5 264/9/5
f 278/2/5 264/2/5 277/2/5
f 279/2/5 266/2/5 265/2/5
f 279/9/5 265/9/5 278/9/5
f 280/2/5 266/2/5 279/2/5
f 287/1/5 282/1/5 281/1/5
f 288/1/5 282/1/5 287/1/5
f 289/4/5 283/4/5 282/4/5
f 289/1/5 282/1/5 288/1/5
f 290/4/5 283/4/5 289/4/5
f 291/4/5 283/4/5 290/4/5
f 292/4/5 283/4/5 291/4/5
f 293/1/5 287/1/5 281/1/5
f 294/1/5 289/1/5 288/1/5
f 295/1/5 289/1/5 294/1/5
f 296/4/5 291/4/5 290/4/5
f 297/4/5 291/4/5 296/4/5
f 298/4/5 283/4/5 292/4/5
f 299/1/5 295/1/5 294/1/5
f 299/1/5 293/1/5 281/1/5
f 299/1/5 294/1/5 293/1/5
f 300/4/5 297/4/5 296/4/5
f 300/1/5 295/1/5 299/1/5
f 300/4/5 298/4/5 297/4/5
f 300/4/5 296/4/5 295/4/5
f 301/4/5 283/4/5 298/4/5
f 301/4/5 298/4/5 300/4/5
f 302/7/5 285/7/5 284/7/5
f 303/3/5 286/3/5 285/3/5
f 303/7/5 285/7/5 302/7/5
f 304/3/5 286/3/5 303/3/5
f 307/5/5 306/5/5 305/5/5
f 308/5/5 306/5/5 307/5/5
f 309/9/6 310/9/6 313/9/6
f 313/9/6 310/9/6 314/9/6
f 311/9/6 312/9/6 315/9/6
f 315/9/6 312/9/6 316/9/6
f 317/9/6 318/9/6 321/9/6
f 321/9/6 318/9/6 322/9/6
f 319/6/6 320/6/6 323/6/6
f 323/6/6 320/6/6 324/6/6
f 325/1/6 326/1/6 327/1/6
f 327/1/6 326/1/6 328/1/6
f 329/1/6 330/1/6 331/1/6
f 331/1/6 330/1/6 332/1/6
f 333/4/6 334/4/6 335/4/6
f 335/4/6 334/4/6 336/4/6
f 337/4/6 338/4/6 342/4/6
f 339/4/6 340/4/6 343/4/6
f 340/5/6 341/5/6 344/5/6
f 344/5/6 341/5/6 345/5/6
f 342/4/6 343/4/6 346/4/6
f 337/4/6 342/4/6 346/4/6
f 343/4/6 340/4/6 347/4/6
f 346/4/6 343/4/6 347/4/6
f 340/5/6 344/5/6 348/5/6
f 337/4/6 346/4/6 350/4/6
f 350/4/6 346/4/6 351/4/6
f 347/4/6 340/4/6 352/4/6
f 348/5/6 349/5/6 353/5/6
f 352/4/6 340/4/6 353/4/6
f 340/5/6 348/5/6 353/5/6
f 353/5/6 349/5/6 354/5/6
f 355/8/6 356/8/6 357/8/6
f 357/8/6 356/8/6 358/8/6
f 359/8/6 360/8/6 363/8/6
f 363/8/6 360/8/6 364/8/6
f 361/8/6 362/8/6 365/8/6
f 365/8/6 362/8/6 366/8/6
