# MagicaVoxel @ Ephtracy

# group
o 

# material
mtllib brokaSTOCK.mtl
usemtl palette

# normals
vn -1 0 0
vn 1 0 0
vn 0 0 1
vn 0 0 -1
vn 0 -1 0
vn 0 1 0

# texcoords
vt 0.677734 0.5
vt 0.681641 0.5
vt 0.876953 0.5
vt 0.974609 0.5
vt 0.978516 0.5
vt 0.982422 0.5
vt 0.986328 0.5
vt 0.994141 0.5

# verts
v -1.2 0.2 0
v -1.2 0.2 -0.3
v -1.2 0.5 0
v -1.2 0.5 -0.3
v -1 0.5 0
v -1 0.5 -0.3
v -1 0.6 0
v -1 0.6 -0.3
v -0.7 0.2 -0.1
v -0.7 0.2 -0.2
v -0.7 0.4 -0.1
v -0.7 0.4 -0.2
v -0.6 0.1 -0.1
v -0.6 0.1 -0.2
v -0.6 0.2 -0.1
v -0.6 0.2 -0.2
v -0.5 0.3 -0.1
v -0.5 0.3 -0.2
v -0.5 0.4 -0.1
v -0.5 0.4 -0.2
v -0.5 0.6 0
v -0.5 0.6 -0.3
v -0.5 0.7 0
v -0.5 0.7 -0.3
v -0.4 0.2 -0.1
v -0.4 0.2 -0.2
v -0.4 0.3 -0.1
v -0.4 0.3 -0.2
v -0.4 0.7 0
v -0.4 0.7 -0.3
v -0.4 0.8 0
v -0.4 0.8 -0.3
v -0.2 0.2 -0.1
v -0.2 0.2 -0.2
v -0.2 0.4 -0.1
v -0.2 0.4 -0.2
v 0.2 0.3 0
v 0.2 0.3 -0.3
v 0.2 0.4 0
v 0.2 0.4 -0.3
v -1 0.2 0
v -1 0.2 -0.3
v -1 0.3 0
v -1 0.3 -0.3
v -0.9 0.3 0
v -0.9 0.3 -0.3
v -0.9 0.4 0
v -0.9 0.4 -0.3
v -0.6 0.3 -0.1
v -0.6 0.3 -0.2
v -0.6 0.4 -0.1
v -0.6 0.4 -0.2
v -0.5 0.2 -0.1
v -0.5 0.2 -0.2
v -0.5 0.3 -0.1
v -0.5 0.3 -0.2
v -0.4 0.3 -0.1
v -0.4 0.3 -0.2
v -0.4 0.4 -0.1
v -0.4 0.4 -0.2
v -0.3 0.2 -0.1
v -0.3 0.2 -0.2
v -0.3 0.3 -0.1
v -0.3 0.3 -0.2
v -0.1 0.1 -0.1
v -0.1 0.1 -0.2
v -0.1 0.4 -0.1
v -0.1 0.4 -0.2
v 0.9 0.3 0
v 0.9 0.3 -0.3
v 0.9 0.4 0
v 0.9 0.4 -0.3
v 1.4 0.4 0
v 1.4 0.4 -0.3
v 1.4 0.6 0
v 1.4 0.6 -0.3
v 2 0.6 0
v 2 0.6 -0.3
v 2 0.8 0
v 2 0.8 -0.3
v -1.2 0.2 0
v -1.2 0.5 0
v -1 0.2 0
v -1 0.3 0
v -1 0.5 0
v -1 0.6 0
v -0.9 0.3 0
v -0.9 0.4 0
v -0.5 0.4 0
v -0.5 0.6 0
v -0.5 0.7 0
v -0.4 0.7 0
v -0.4 0.8 0
v -0.2 0.6 0
v -0.2 0.7 0
v 0.0999999 0.6 0
v 0.0999999 0.7 0
v 0.2 0.3 0
v 0.2 0.4 0
v 0.2 0.6 0
v 0.2 0.8 0
v 0.3 0.3 0
v 0.3 0.5 0
v 0.4 0.3 0
v 0.4 0.5 0
v 0.5 0.3 0
v 0.5 0.5 0
v 0.6 0.3 0
v 0.6 0.5 0
v 0.7 0.3 0
v 0.7 0.5 0
v 0.8 0.3 0
v 0.8 0.5 0
v 0.9 0.3 0
v 0.9 0.4 0
v 0.9 0.6 0
v 1.3 0.4 0
v 1.3 0.6 0
v 1.4 0.4 0
v 1.4 0.6 0
v 2 0.6 0
v 2 0.8 0
v -0.7 0.2 -0.1
v -0.7 0.4 -0.1
v -0.6 0.1 -0.1
v -0.6 0.2 -0.1
v -0.6 0.3 -0.1
v -0.6 0.4 -0.1
v -0.5 0.2 -0.1
v -0.5 0.3 -0.1
v -0.5 0.4 -0.1
v -0.4 0.2 -0.1
v -0.4 0.3 -0.1
v -0.4 0.4 -0.1
v -0.3 0.2 -0.1
v -0.3 0.3 -0.1
v -0.2 0.2 -0.1
v -0.2 0.4 -0.1
v -0.1 0.1 -0.1
v -0.1 0.4 -0.1
v -0.7 0.2 -0.2
v -0.7 0.4 -0.2
v -0.6 0.1 -0.2
v -0.6 0.2 -0.2
v -0.6 0.3 -0.2
v -0.6 0.4 -0.2
v -0.5 0.2 -0.2
v -0.5 0.3 -0.2
v -0.5 0.4 -0.2
v -0.4 0.2 -0.2
v -0.4 0.3 -0.2
v -0.4 0.4 -0.2
v -0.3 0.2 -0.2
v -0.3 0.3 -0.2
v -0.2 0.2 -0.2
v -0.2 0.4 -0.2
v -0.1 0.1 -0.2
v -0.1 0.4 -0.2
v -1.2 0.2 -0.3
v -1.2 0.5 -0.3
v -1 0.2 -0.3
v -1 0.3 -0.3
v -1 0.5 -0.3
v -1 0.6 -0.3
v -0.9 0.3 -0.3
v -0.9 0.4 -0.3
v -0.5 0.4 -0.3
v -0.5 0.6 -0.3
v -0.5 0.7 -0.3
v -0.4 0.7 -0.3
v -0.4 0.8 -0.3
v 0.2 0.3 -0.3
v 0.2 0.4 -0.3
v 0.2 0.6 -0.3
v 0.2 0.8 -0.3
v 0.3 0.3 -0.3
v 0.3 0.5 -0.3
v 0.4 0.3 -0.3
v 0.4 0.5 -0.3
v 0.5 0.3 -0.3
v 0.5 0.5 -0.3
v 0.6 0.3 -0.3
v 0.6 0.5 -0.3
v 0.7 0.3 -0.3
v 0.7 0.5 -0.3
v 0.8 0.3 -0.3
v 0.8 0.5 -0.3
v 0.9 0.3 -0.3
v 0.9 0.4 -0.3
v 0.9 0.6 -0.3
v 1.3 0.4 -0.3
v 1.3 0.6 -0.3
v 1.4 0.4 -0.3
v 1.4 0.6 -0.3
v 2 0.6 -0.3
v 2 0.8 -0.3
v -0.6 0.1 -0.1
v -0.1 0.1 -0.1
v -0.6 0.1 -0.2
v -0.1 0.1 -0.2
v -1.2 0.2 0
v -1 0.2 0
v -0.7 0.2 -0.1
v -0.6 0.2 -0.1
v -0.7 0.2 -0.2
v -0.6 0.2 -0.2
v -1.2 0.2 -0.3
v -1 0.2 -0.3
v -1 0.3 0
v -0.9 0.3 0
v 0.2 0.3 0
v 0.3 0.3 0
v 0.4 0.3 0
v 0.5 0.3 0
v 0.6 0.3 0
v 0.7 0.3 0
v 0.8 0.3 0
v 0.9 0.3 0
v -0.5 0.3 -0.1
v -0.4 0.3 -0.1
v -0.5 0.3 -0.2
v -0.4 0.3 -0.2
v -1 0.3 -0.3
v -0.9 0.3 -0.3
v 0.2 0.3 -0.3
v 0.3 0.3 -0.3
v 0.4 0.3 -0.3
v 0.5 0.3 -0.3
v 0.6 0.3 -0.3
v 0.7 0.3 -0.3
v 0.8 0.3 -0.3
v 0.9 0.3 -0.3
v -0.9 0.4 0
v -0.5 0.4 0
v 0.2 0.4 0
v 0.9 0.4 0
v 1.3 0.4 0
v 1.4 0.4 0
v -0.7 0.4 -0.1
v -0.6 0.4 -0.1
v -0.5 0.4 -0.1
v -0.4 0.4 -0.1
v -0.2 0.4 -0.1
v -0.1 0.4 -0.1
v -0.7 0.4 -0.2
v -0.6 0.4 -0.2
v -0.5 0.4 -0.2
v -0.4 0.4 -0.2
v -0.2 0.4 -0.2
v -0.1 0.4 -0.2
v -0.9 0.4 -0.3
v -0.5 0.4 -0.3
v 0.2 0.4 -0.3
v 0.9 0.4 -0.3
v 1.3 0.4 -0.3
v 1.4 0.4 -0.3
v 1.4 0.6 0
v 2 0.6 0
v 1.4 0.6 -0.3
v 2 0.6 -0.3
v -0.5 0.2 -0.1
v -0.4 0.2 -0.1
v -0.3 0.2 -0.1
v -0.2 0.2 -0.1
v -0.5 0.2 -0.2
v -0.4 0.2 -0.2
v -0.3 0.2 -0.2
v -0.2 0.2 -0.2
v -0.6 0.3 -0.1
v -0.5 0.3 -0.1
v -0.4 0.3 -0.1
v -0.3 0.3 -0.1
v -0.6 0.3 -0.2
v -0.5 0.3 -0.2
v -0.4 0.3 -0.2
v -0.3 0.3 -0.2
v -1.2 0.5 0
v -1 0.5 0
v -1.2 0.5 -0.3
v -1 0.5 -0.3
v -1 0.6 0
v -0.5 0.6 0
v -1 0.6 -0.3
v -0.5 0.6 -0.3
v -0.5 0.7 0
v -0.4 0.7 0
v -0.5 0.7 -0.3
v -0.4 0.7 -0.3
v -0.4 0.8 0
v 0.2 0.8 0
v 2 0.8 0
v -0.4 0.8 -0.3
v 0.2 0.8 -0.3
v 2 0.8 -0.3

# faces
f 3/1/1 2/1/1 1/1/1
f 4/1/1 2/1/1 3/1/1
f 7/1/1 6/1/1 5/1/1
f 8/1/1 6/1/1 7/1/1
f 11/8/1 10/8/1 9/8/1
f 12/8/1 10/8/1 11/8/1
f 15/8/1 14/8/1 13/8/1
f 16/8/1 14/8/1 15/8/1
f 19/6/1 18/6/1 17/6/1
f 20/6/1 18/6/1 19/6/1
f 23/4/1 22/4/1 21/4/1
f 24/4/1 22/4/1 23/4/1
f 27/6/1 26/6/1 25/6/1
f 28/6/1 26/6/1 27/6/1
f 31/4/1 30/4/1 29/4/1
f 32/4/1 30/4/1 31/4/1
f 35/8/1 34/8/1 33/8/1
f 36/8/1 34/8/1 35/8/1
f 39/2/1 38/2/1 37/2/1
f 40/2/1 38/2/1 39/2/1
f 41/1/2 42/1/2 43/1/2
f 43/1/2 42/1/2 44/1/2
f 45/1/2 46/1/2 47/1/2
f 47/1/2 46/1/2 48/1/2
f 49/8/2 50/8/2 51/8/2
f 51/8/2 50/8/2 52/8/2
f 53/8/2 54/8/2 55/8/2
f 55/8/2 54/8/2 56/8/2
f 57/6/2 58/6/2 59/6/2
f 59/6/2 58/6/2 60/6/2
f 61/6/2 62/6/2 63/6/2
f 63/6/2 62/6/2 64/6/2
f 65/8/2 66/8/2 67/8/2
f 67/8/2 66/8/2 68/8/2
f 69/2/2 70/2/2 71/2/2
f 71/2/2 70/2/2 72/2/2
f 73/3/2 74/3/2 75/3/2
f 75/3/2 74/3/2 76/3/2
f 77/5/2 78/5/2 79/5/2
f 79/5/2 78/5/2 80/5/2
f 83/1/3 82/1/3 81/1/3
f 84/1/3 82/1/3 83/1/3
f 85/1/3 82/1/3 84/1/3
f 87/1/3 86/1/3 85/1/3
f 87/1/3 85/1/3 84/1/3
f 88/1/3 86/1/3 87/1/3
f 89/1/3 86/1/3 88/1/3
f 90/1/3 86/1/3 89/1/3
f 92/4/3 90/4/3 89/4/3
f 92/4/3 91/4/3 90/4/3
f 94/4/3 92/4/3 89/4/3
f 94/4/3 93/4/3 92/4/3
f 95/4/3 93/4/3 94/4/3
f 96/4/3 94/4/3 89/4/3
f 96/7/3 95/7/3 94/7/3
f 97/4/3 93/4/3 95/4/3
f 97/7/3 95/7/3 96/7/3
f 99/4/3 96/4/3 89/4/3
f 99/4/3 97/4/3 96/4/3
f 100/4/3 97/4/3 99/4/3
f 101/4/3 93/4/3 97/4/3
f 101/4/3 97/4/3 100/4/3
f 102/2/3 100/2/3 99/2/3
f 102/2/3 99/2/3 98/2/3
f 103/2/3 100/2/3 102/2/3
f 104/8/3 103/8/3 102/8/3
f 105/2/3 100/2/3 103/2/3
f 105/8/3 103/8/3 104/8/3
f 106/2/3 105/2/3 104/2/3
f 107/2/3 100/2/3 105/2/3
f 107/2/3 105/2/3 106/2/3
f 108/8/3 107/8/3 106/8/3
f 109/2/3 100/2/3 107/2/3
f 109/8/3 107/8/3 108/8/3
f 110/2/3 109/2/3 108/2/3
f 111/2/3 100/2/3 109/2/3
f 111/2/3 109/2/3 110/2/3
f 112/8/3 111/8/3 110/8/3
f 113/2/3 100/2/3 111/2/3
f 113/8/3 111/8/3 112/8/3
f 114/2/3 113/2/3 112/2/3
f 115/2/3 113/2/3 114/2/3
f 116/5/3 101/5/3 100/5/3
f 116/2/3 113/2/3 115/2/3
f 116/2/3 100/2/3 113/2/3
f 117/7/3 116/7/3 115/7/3
f 118/5/3 101/5/3 116/5/3
f 118/7/3 116/7/3 117/7/3
f 119/3/3 118/3/3 117/3/3
f 120/5/3 101/5/3 118/5/3
f 120/3/3 118/3/3 119/3/3
f 121/5/3 101/5/3 120/5/3
f 122/5/3 101/5/3 121/5/3
f 126/8/3 124/8/3 123/8/3
f 127/8/3 124/8/3 126/8/3
f 128/8/3 124/8/3 127/8/3
f 129/8/3 126/8/3 125/8/3
f 129/8/3 127/8/3 126/8/3
f 130/8/3 127/8/3 129/8/3
f 132/8/3 129/8/3 125/8/3
f 133/6/3 131/6/3 130/6/3
f 134/6/3 131/6/3 133/6/3
f 135/8/3 132/8/3 125/8/3
f 135/6/3 133/6/3 132/6/3
f 136/6/3 133/6/3 135/6/3
f 137/8/3 135/8/3 125/8/3
f 139/8/3 137/8/3 125/8/3
f 139/8/3 138/8/3 137/8/3
f 140/8/3 138/8/3 139/8/3
f 141/8/4 142/8/4 144/8/4
f 144/8/4 142/8/4 145/8/4
f 145/8/4 142/8/4 146/8/4
f 143/8/4 144/8/4 147/8/4
f 144/8/4 145/8/4 147/8/4
f 147/8/4 145/8/4 148/8/4
f 143/8/4 147/8/4 150/8/4
f 148/6/4 149/6/4 151/6/4
f 151/6/4 149/6/4 152/6/4
f 143/8/4 150/8/4 153/8/4
f 150/6/4 151/6/4 153/6/4
f 153/6/4 151/6/4 154/6/4
f 143/8/4 153/8/4 155/8/4
f 143/8/4 155/8/4 157/8/4
f 155/8/4 156/8/4 157/8/4
f 157/8/4 156/8/4 158/8/4
f 159/1/4 160/1/4 161/1/4
f 161/1/4 160/1/4 162/1/4
f 162/1/4 160/1/4 163/1/4
f 163/1/4 164/1/4 165/1/4
f 162/1/4 163/1/4 165/1/4
f 165/1/4 164/1/4 166/1/4
f 166/1/4 164/1/4 167/1/4
f 167/1/4 164/1/4 168/1/4
f 167/4/4 168/4/4 170/4/4
f 168/4/4 169/4/4 170/4/4
f 167/4/4 170/4/4 173/4/4
f 170/4/4 171/4/4 173/4/4
f 173/4/4 171/4/4 174/4/4
f 174/4/4 171/4/4 175/4/4
f 172/2/4 173/2/4 176/2/4
f 173/2/4 174/2/4 176/2/4
f 176/2/4 174/2/4 177/2/4
f 176/8/4 177/8/4 178/8/4
f 177/2/4 174/2/4 179/2/4
f 178/8/4 177/8/4 179/8/4
f 178/2/4 179/2/4 180/2/4
f 179/2/4 174/2/4 181/2/4
f 180/2/4 179/2/4 181/2/4
f 180/8/4 181/8/4 182/8/4
f 181/2/4 174/2/4 183/2/4
f 182/8/4 181/8/4 183/8/4
f 182/2/4 183/2/4 184/2/4
f 183/2/4 174/2/4 185/2/4
f 184/2/4 183/2/4 185/2/4
f 184/8/4 185/8/4 186/8/4
f 185/2/4 174/2/4 187/2/4
f 186/8/4 185/8/4 187/8/4
f 186/2/4 187/2/4 188/2/4
f 188/2/4 187/2/4 189/2/4
f 174/5/4 175/5/4 190/5/4
f 189/2/4 187/2/4 190/2/4
f 187/2/4 174/2/4 190/2/4
f 189/7/4 190/7/4 191/7/4
f 190/5/4 175/5/4 192/5/4
f 191/7/4 190/7/4 192/7/4
f 191/3/4 192/3/4 193/3/4
f 192/5/4 175/5/4 194/5/4
f 193/3/4 192/3/4 194/3/4
f 194/5/4 175/5/4 195/5/4
f 195/5/4 175/5/4 196/5/4
f 199/8/5 198/8/5 197/8/5
f 200/8/5 198/8/5 199/8/5
f 205/8/5 204/8/5 203/8/5
f 206/8/5 204/8/5 205/8/5
f 207/1/5 202/1/5 201/1/5
f 208/1/5 202/1/5 207/1/5
f 221/6/5 220/6/5 219/6/5
f 222/6/5 220/6/5 221/6/5
f 223/1/5 210/1/5 209/1/5
f 224/1/5 210/1/5 223/1/5
f 225/2/5 212/2/5 211/2/5
f 226/8/5 213/8/5 212/8/5
f 226/2/5 212/2/5 225/2/5
f 227/2/5 214/2/5 213/2/5
f 227/8/5 213/8/5 226/8/5
f 228/8/5 215/8/5 214/8/5
f 228/2/5 214/2/5 227/2/5
f 229/2/5 216/2/5 215/2/5
f 229/8/5 215/8/5 228/8/5
f 230/8/5 217/8/5 216/8/5
f 230/2/5 216/2/5 229/2/5
f 231/2/5 218/2/5 217/2/5
f 231/8/5 217/8/5 230/8/5
f 232/2/5 218/2/5 231/2/5
f 239/1/5 234/1/5 233/1/5
f 240/1/5 234/1/5 239/1/5
f 241/4/5 235/4/5 234/4/5
f 241/1/5 234/1/5 240/1/5
f 242/4/5 235/4/5 241/4/5
f 243/4/5 235/4/5 242/4/5
f 244/4/5 235/4/5 243/4/5
f 245/1/5 239/1/5 233/1/5
f 246/1/5 241/1/5 240/1/5
f 247/1/5 241/1/5 246/1/5
f 248/4/5 243/4/5 242/4/5
f 249/4/5 243/4/5 248/4/5
f 250/4/5 235/4/5 244/4/5
f 251/1/5 247/1/5 246/1/5
f 251/1/5 245/1/5 233/1/5
f 251/1/5 246/1/5 245/1/5
f 252/4/5 249/4/5 248/4/5
f 252/1/5 247/1/5 251/1/5
f 252/4/5 250/4/5 249/4/5
f 252/4/5 248/4/5 247/4/5
f 253/4/5 235/4/5 250/4/5
f 253/4/5 250/4/5 252/4/5
f 254/7/5 237/7/5 236/7/5
f 255/3/5 238/3/5 237/3/5
f 255/7/5 237/7/5 254/7/5
f 256/3/5 238/3/5 255/3/5
f 259/5/5 258/5/5 257/5/5
f 260/5/5 258/5/5 259/5/5
f 261/8/6 262/8/6 265/8/6
f 265/8/6 262/8/6 266/8/6
f 263/8/6 264/8/6 267/8/6
f 267/8/6 264/8/6 268/8/6
f 269/8/6 270/8/6 273/8/6
f 273/8/6 270/8/6 274/8/6
f 271/6/6 272/6/6 275/6/6
f 275/6/6 272/6/6 276/6/6
f 277/1/6 278/1/6 279/1/6
f 279/1/6 278/1/6 280/1/6
f 281/1/6 282/1/6 283/1/6
f 283/1/6 282/1/6 284/1/6
f 285/4/6 286/4/6 287/4/6
f 287/4/6 286/4/6 288/4/6
f 289/4/6 290/4/6 292/4/6
f 290/5/6 291/5/6 293/5/6
f 292/4/6 290/4/6 293/4/6
f 293/5/6 291/5/6 294/5/6
