# MagicaVoxel @ Ephtracy

# group
o 

# material
mtllib brokaMAXACC+MAG.mtl
usemtl palette

# normals
vn -1 0 0
vn 1 0 0
vn 0 0 1
vn 0 0 -1
vn 0 -1 0
vn 0 1 0

# texcoords
vt 0.677734 0.5
vt 0.681641 0.5
vt 0.841797 0.5
vt 0.876953 0.5
vt 0.974609 0.5
vt 0.978516 0.5
vt 0.982422 0.5
vt 0.986328 0.5
vt 0.990234 0.5
vt 0.994141 0.5

# verts
v -1.2 0.2 1.41561e-07
v -1.2 0.2 -0.3
v -1.2 0.5 1.41561e-07
v -1.2 0.5 -0.3
v -1 0.5 1.41561e-07
v -1 0.5 -0.3
v -1 0.6 1.41561e-07
v -1 0.6 -0.3
v -0.7 0.2 -0.0999999
v -0.7 0.2 -0.2
v -0.7 0.4 -0.0999999
v -0.7 0.4 -0.2
v -0.6 0.1 -0.0999999
v -0.6 0.1 -0.2
v -0.6 0.2 -0.0999999
v -0.6 0.2 -0.2
v -0.5 0.3 -0.0999999
v -0.5 0.3 -0.2
v -0.5 0.4 -0.0999999
v -0.5 0.4 -0.2
v -0.5 0.6 1.41561e-07
v -0.5 0.6 -0.3
v -0.5 0.7 1.41561e-07
v -0.5 0.7 -0.3
v -0.4 0.2 -0.0999999
v -0.4 0.2 -0.2
v -0.4 0.3 -0.0999999
v -0.4 0.3 -0.2
v -0.4 0.7 1.41561e-07
v -0.4 0.7 -0.3
v -0.4 0.8 1.41561e-07
v -0.4 0.8 -0.3
v -0.2 0.2 -0.0999999
v -0.2 0.2 -0.2
v -0.2 0.4 -0.0999999
v -0.2 0.4 -0.2
v -0.2 0.8 1.41561e-07
v -0.2 0.8 -0.3
v -0.2 0.9 -0.0999999
v -0.2 0.9 -0.2
v -0.2 1 1.41561e-07
v -0.2 1 -0.0999999
v -0.2 1 -0.2
v -0.2 1 -0.3
v -0.1 1 1.41561e-07
v -0.1 1 -0.0999999
v -0.1 1 -0.2
v -0.1 1 -0.3
v -0.1 1.1 1.41561e-07
v -0.1 1.1 -0.3
v 0.2 0.3 1.41561e-07
v 0.2 0.3 -0.3
v 0.2 0.4 1.41561e-07
v 0.2 0.4 -0.3
v 1.9 0.8 1.41561e-07
v 1.9 0.8 -0.0999999
v 1.9 0.8 -0.2
v 1.9 0.8 -0.3
v 1.9 0.9 -0.0999999
v 1.9 0.9 -0.2
v 1.9 1 1.41561e-07
v 1.9 1 -0.0999999
v 1.9 1 -0.2
v 1.9 1 -0.3
v -1 0.2 1.41561e-07
v -1 0.2 -0.3
v -1 0.3 1.41561e-07
v -1 0.3 -0.3
v -0.9 0.3 1.41561e-07
v -0.9 0.3 -0.3
v -0.9 0.4 1.41561e-07
v -0.9 0.4 -0.3
v -0.6 0.3 -0.0999999
v -0.6 0.3 -0.2
v -0.6 0.4 -0.0999999
v -0.6 0.4 -0.2
v -0.5 0.2 -0.0999999
v -0.5 0.2 -0.2
v -0.5 0.3 -0.0999999
v -0.5 0.3 -0.2
v -0.4 0.3 -0.0999999
v -0.4 0.3 -0.2
v -0.4 0.4 -0.0999999
v -0.4 0.4 -0.2
v -0.3 0.2 -0.0999999
v -0.3 0.2 -0.2
v -0.3 0.3 -0.0999999
v -0.3 0.3 -0.2
v -0.1 0.1 -0.0999999
v -0.1 0.1 -0.2
v -0.1 0.4 -0.0999999
v -0.1 0.4 -0.2
v 0.2 0.8 1.41561e-07
v 0.2 0.8 -0.3
v 0.2 0.9 -0.0999999
v 0.2 0.9 -0.2
v 0.2 1 -0.0999999
v 0.2 1 -0.2
v 0.2 1.1 1.41561e-07
v 0.2 1.1 -0.3
v 0.9 0.3 1.41561e-07
v 0.9 0.3 -0.3
v 0.9 0.4 1.41561e-07
v 0.9 0.4 -0.3
v 1.9 0.4 1.41561e-07
v 1.9 0.4 -0.3
v 1.9 0.6 1.41561e-07
v 1.9 0.6 -0.3
v 2 0.6 1.41561e-07
v 2 0.6 -0.3
v 2 0.8 1.41561e-07
v 2 0.8 -0.0999999
v 2 0.8 -0.2
v 2 0.8 -0.3
v 2 0.9 -0.0999999
v 2 0.9 -0.2
v 2 1 1.41561e-07
v 2 1 -0.0999999
v 2 1 -0.2
v 2 1 -0.3
v -1.2 0.2 1.41561e-07
v -1.2 0.5 1.41561e-07
v -1 0.2 1.41561e-07
v -1 0.3 1.41561e-07
v -1 0.5 1.41561e-07
v -1 0.6 1.41561e-07
v -0.9 0.3 1.41561e-07
v -0.9 0.4 1.41561e-07
v -0.5 0.4 1.41561e-07
v -0.5 0.6 1.41561e-07
v -0.5 0.7 1.41561e-07
v -0.4 0.7 1.41561e-07
v -0.4 0.8 1.41561e-07
v -0.2 0.6 1.41561e-07
v -0.2 0.7 1.41561e-07
v -0.2 0.8 1.41561e-07
v -0.2 1 1.41561e-07
v -0.1 1 1.41561e-07
v -0.1 1.1 1.41561e-07
v 0.0999998 0.6 1.41561e-07
v 0.0999998 0.7 1.41561e-07
v 0.2 0.3 1.41561e-07
v 0.2 0.4 1.41561e-07
v 0.2 0.6 1.41561e-07
v 0.2 0.8 1.41561e-07
v 0.2 1.1 1.41561e-07
v 0.3 0.3 1.41561e-07
v 0.3 0.5 1.41561e-07
v 0.4 0.3 1.41561e-07
v 0.4 0.5 1.41561e-07
v 0.5 0.3 1.41561e-07
v 0.5 0.5 1.41561e-07
v 0.6 0.3 1.41561e-07
v 0.6 0.5 1.41561e-07
v 0.7 0.3 1.41561e-07
v 0.7 0.5 1.41561e-07
v 0.8 0.3 1.41561e-07
v 0.8 0.5 1.41561e-07
v 0.9 0.3 1.41561e-07
v 0.9 0.4 1.41561e-07
v 0.9 0.6 1.41561e-07
v 1.3 0.4 1.41561e-07
v 1.3 0.6 1.41561e-07
v 1.4 0.4 1.41561e-07
v 1.4 0.6 1.41561e-07
v 1.8 0.4 1.41561e-07
v 1.8 0.6 1.41561e-07
v 1.9 0.4 1.41561e-07
v 1.9 0.6 1.41561e-07
v 1.9 0.8 1.41561e-07
v 1.9 1 1.41561e-07
v 2 0.6 1.41561e-07
v 2 0.8 1.41561e-07
v 2 1 1.41561e-07
v -0.7 0.2 -0.0999999
v -0.7 0.4 -0.0999999
v -0.6 0.1 -0.0999999
v -0.6 0.2 -0.0999999
v -0.6 0.3 -0.0999999
v -0.6 0.4 -0.0999999
v -0.5 0.2 -0.0999999
v -0.5 0.3 -0.0999999
v -0.5 0.4 -0.0999999
v -0.4 0.2 -0.0999999
v -0.4 0.3 -0.0999999
v -0.4 0.4 -0.0999999
v -0.3 0.2 -0.0999999
v -0.3 0.3 -0.0999999
v -0.2 0.2 -0.0999999
v -0.2 0.4 -0.0999999
v -0.1 0.1 -0.0999999
v -0.1 0.4 -0.0999999
v -0.2 0.9 -0.2
v -0.2 1 -0.2
v -0.1 1 -0.2
v 0.2 0.9 -0.2
v 0.2 1 -0.2
v 1.9 0.9 -0.2
v 1.9 1 -0.2
v 2 0.9 -0.2
v 2 1 -0.2
v -0.2 0.9 -0.0999999
v -0.2 1 -0.0999999
v -0.1 1 -0.0999999
v 0.2 0.9 -0.0999999
v 0.2 1 -0.0999999
v 1.9 0.9 -0.0999999
v 1.9 1 -0.0999999
v 2 0.9 -0.0999999
v 2 1 -0.0999999
v -0.7 0.2 -0.2
v -0.7 0.4 -0.2
v -0.6 0.1 -0.2
v -0.6 0.2 -0.2
v -0.6 0.3 -0.2
v -0.6 0.4 -0.2
v -0.5 0.2 -0.2
v -0.5 0.3 -0.2
v -0.5 0.4 -0.2
v -0.4 0.2 -0.2
v -0.4 0.3 -0.2
v -0.4 0.4 -0.2
v -0.3 0.2 -0.2
v -0.3 0.3 -0.2
v -0.2 0.2 -0.2
v -0.2 0.4 -0.2
v -0.1 0.1 -0.2
v -0.1 0.4 -0.2
v -1.2 0.2 -0.3
v -1.2 0.5 -0.3
v -1 0.2 -0.3
v -1 0.3 -0.3
v -1 0.5 -0.3
v -1 0.6 -0.3
v -0.9 0.3 -0.3
v -0.9 0.4 -0.3
v -0.5 0.4 -0.3
v -0.5 0.6 -0.3
v -0.5 0.7 -0.3
v -0.4 0.7 -0.3
v -0.4 0.8 -0.3
v -0.2 0.8 -0.3
v -0.2 1 -0.3
v -0.1 1 -0.3
v -0.1 1.1 -0.3
v 0.2 0.3 -0.3
v 0.2 0.4 -0.3
v 0.2 0.6 -0.3
v 0.2 0.8 -0.3
v 0.2 1.1 -0.3
v 0.3 0.3 -0.3
v 0.3 0.5 -0.3
v 0.4 0.3 -0.3
v 0.4 0.5 -0.3
v 0.5 0.3 -0.3
v 0.5 0.5 -0.3
v 0.6 0.3 -0.3
v 0.6 0.5 -0.3
v 0.7 0.3 -0.3
v 0.7 0.5 -0.3
v 0.8 0.3 -0.3
v 0.8 0.5 -0.3
v 0.9 0.3 -0.3
v 0.9 0.4 -0.3
v 0.9 0.6 -0.3
v 1.3 0.4 -0.3
v 1.3 0.6 -0.3
v 1.4 0.4 -0.3
v 1.4 0.6 -0.3
v 1.8 0.4 -0.3
v 1.8 0.6 -0.3
v 1.9 0.4 -0.3
v 1.9 0.6 -0.3
v 1.9 0.8 -0.3
v 1.9 1 -0.3
v 2 0.6 -0.3
v 2 0.8 -0.3
v 2 1 -0.3
v -0.6 0.1 -0.0999999
v -0.1 0.1 -0.0999999
v -0.6 0.1 -0.2
v -0.1 0.1 -0.2
v -1.2 0.2 1.41561e-07
v -1 0.2 1.41561e-07
v -0.7 0.2 -0.0999999
v -0.6 0.2 -0.0999999
v -0.7 0.2 -0.2
v -0.6 0.2 -0.2
v -1.2 0.2 -0.3
v -1 0.2 -0.3
v -1 0.3 1.41561e-07
v -0.9 0.3 1.41561e-07
v 0.2 0.3 1.41561e-07
v 0.3 0.3 1.41561e-07
v 0.4 0.3 1.41561e-07
v 0.5 0.3 1.41561e-07
v 0.6 0.3 1.41561e-07
v 0.7 0.3 1.41561e-07
v 0.8 0.3 1.41561e-07
v 0.9 0.3 1.41561e-07
v -0.5 0.3 -0.0999999
v -0.4 0.3 -0.0999999
v -0.5 0.3 -0.2
v -0.4 0.3 -0.2
v -1 0.3 -0.3
v -0.9 0.3 -0.3
v 0.2 0.3 -0.3
v 0.3 0.3 -0.3
v 0.4 0.3 -0.3
v 0.5 0.3 -0.3
v 0.6 0.3 -0.3
v 0.7 0.3 -0.3
v 0.8 0.3 -0.3
v 0.9 0.3 -0.3
v -0.9 0.4 1.41561e-07
v -0.5 0.4 1.41561e-07
v 0.2 0.4 1.41561e-07
v 0.9 0.4 1.41561e-07
v 1.3 0.4 1.41561e-07
v 1.4 0.4 1.41561e-07
v 1.8 0.4 1.41561e-07
v 1.9 0.4 1.41561e-07
v -0.7 0.4 -0.0999999
v -0.6 0.4 -0.0999999
v -0.5 0.4 -0.0999999
v -0.4 0.4 -0.0999999
v -0.2 0.4 -0.0999999
v -0.1 0.4 -0.0999999
v -0.7 0.4 -0.2
v -0.6 0.4 -0.2
v -0.5 0.4 -0.2
v -0.4 0.4 -0.2
v -0.2 0.4 -0.2
v -0.1 0.4 -0.2
v -0.9 0.4 -0.3
v -0.5 0.4 -0.3
v 0.2 0.4 -0.3
v 0.9 0.4 -0.3
v 1.3 0.4 -0.3
v 1.4 0.4 -0.3
v 1.8 0.4 -0.3
v 1.9 0.4 -0.3
v 1.9 0.6 1.41561e-07
v 2 0.6 1.41561e-07
v 1.9 0.6 -0.3
v 2 0.6 -0.3
v -0.1 1 -0.0999999
v 0.2 1 -0.0999999
v -0.1 1 -0.2
v 0.2 1 -0.2
v -0.5 0.2 -0.0999999
v -0.4 0.2 -0.0999999
v -0.3 0.2 -0.0999999
v -0.2 0.2 -0.0999999
v -0.5 0.2 -0.2
v -0.4 0.2 -0.2
v -0.3 0.2 -0.2
v -0.2 0.2 -0.2
v -0.6 0.3 -0.0999999
v -0.5 0.3 -0.0999999
v -0.4 0.3 -0.0999999
v -0.3 0.3 -0.0999999
v -0.6 0.3 -0.2
v -0.5 0.3 -0.2
v -0.4 0.3 -0.2
v -0.3 0.3 -0.2
v -1.2 0.5 1.41561e-07
v -1 0.5 1.41561e-07
v -1.2 0.5 -0.3
v -1 0.5 -0.3
v -1 0.6 1.41561e-07
v -0.5 0.6 1.41561e-07
v -1 0.6 -0.3
v -0.5 0.6 -0.3
v -0.5 0.7 1.41561e-07
v -0.4 0.7 1.41561e-07
v -0.5 0.7 -0.3
v -0.4 0.7 -0.3
v -0.4 0.8 1.41561e-07
v -0.2 0.8 1.41561e-07
v 0.2 0.8 1.41561e-07
v 1.9 0.8 1.41561e-07
v 1.9 0.8 -0.0999999
v 1.9 0.8 -0.2
v -0.4 0.8 -0.3
v -0.2 0.8 -0.3
v 0.2 0.8 -0.3
v 1.9 0.8 -0.3
v -0.2 0.9 -0.0999999
v 0.2 0.9 -0.0999999
v 1.9 0.9 -0.0999999
v 2 0.9 -0.0999999
v -0.2 0.9 -0.2
v 0.2 0.9 -0.2
v 1.9 0.9 -0.2
v 2 0.9 -0.2
v -0.2 1 1.41561e-07
v -0.1 1 1.41561e-07
v 1.9 1 1.41561e-07
v 2 1 1.41561e-07
v -0.2 1 -0.0999999
v -0.1 1 -0.0999999
v 1.9 1 -0.0999999
v 2 1 -0.0999999
v -0.2 1 -0.2
v -0.1 1 -0.2
v 1.9 1 -0.2
v 2 1 -0.2
v -0.2 1 -0.3
v -0.1 1 -0.3
v 1.9 1 -0.3
v 2 1 -0.3
v -0.1 1.1 1.41561e-07
v 0.2 1.1 1.41561e-07
v -0.1 1.1 -0.3
v 0.2 1.1 -0.3

# faces
f 3/1/1 2/1/1 1/1/1
f 4/1/1 2/1/1 3/1/1
f 7/1/1 6/1/1 5/1/1
f 8/1/1 6/1/1 7/1/1
f 11/10/1 10/10/1 9/10/1
f 12/10/1 10/10/1 11/10/1
f 15/10/1 14/10/1 13/10/1
f 16/10/1 14/10/1 15/10/1
f 19/7/1 18/7/1 17/7/1
f 20/7/1 18/7/1 19/7/1
f 23/5/1 22/5/1 21/5/1
f 24/5/1 22/5/1 23/5/1
f 27/7/1 26/7/1 25/7/1
f 28/7/1 26/7/1 27/7/1
f 31/5/1 30/5/1 29/5/1
f 32/5/1 30/5/1 31/5/1
f 35/10/1 34/10/1 33/10/1
f 36/10/1 34/10/1 35/10/1
f 39/9/1 38/9/1 37/9/1
f 40/9/1 38/9/1 39/9/1
f 41/9/1 39/9/1 37/9/1
f 42/9/1 39/9/1 41/9/1
f 43/9/1 38/9/1 40/9/1
f 44/9/1 38/9/1 43/9/1
f 49/9/1 46/9/1 45/9/1
f 49/9/1 48/9/1 47/9/1
f 49/9/1 47/9/1 46/9/1
f 50/9/1 48/9/1 49/9/1
f 53/2/1 52/2/1 51/2/1
f 54/2/1 52/2/1 53/2/1
f 59/9/1 56/9/1 55/9/1
f 59/3/1 57/3/1 56/3/1
f 60/9/1 58/9/1 57/9/1
f 60/3/1 57/3/1 59/3/1
f 61/9/1 59/9/1 55/9/1
f 62/9/1 59/9/1 61/9/1
f 63/9/1 58/9/1 60/9/1
f 64/9/1 58/9/1 63/9/1
f 65/1/2 66/1/2 67/1/2
f 67/1/2 66/1/2 68/1/2
f 69/1/2 70/1/2 71/1/2
f 71/1/2 70/1/2 72/1/2
f 73/10/2 74/10/2 75/10/2
f 75/10/2 74/10/2 76/10/2
f 77/10/2 78/10/2 79/10/2
f 79/10/2 78/10/2 80/10/2
f 81/7/2 82/7/2 83/7/2
f 83/7/2 82/7/2 84/7/2
f 85/7/2 86/7/2 87/7/2
f 87/7/2 86/7/2 88/7/2
f 89/10/2 90/10/2 91/10/2
f 91/10/2 90/10/2 92/10/2
f 93/9/2 94/9/2 95/9/2
f 95/9/2 94/9/2 96/9/2
f 93/9/2 95/9/2 97/9/2
f 96/9/2 94/9/2 98/9/2
f 93/9/2 97/9/2 99/9/2
f 97/9/2 98/9/2 99/9/2
f 98/9/2 94/9/2 100/9/2
f 99/9/2 98/9/2 100/9/2
f 101/2/2 102/2/2 103/2/2
f 103/2/2 102/2/2 104/2/2
f 105/4/2 106/4/2 107/4/2
f 107/4/2 106/4/2 108/4/2
f 109/6/2 110/6/2 111/6/2
f 111/6/2 110/6/2 112/6/2
f 112/6/2 110/6/2 113/6/2
f 113/6/2 110/6/2 114/6/2
f 111/9/2 112/9/2 115/9/2
f 112/3/2 113/3/2 115/3/2
f 113/9/2 114/9/2 116/9/2
f 115/3/2 113/3/2 116/3/2
f 111/9/2 115/9/2 117/9/2
f 117/9/2 115/9/2 118/9/2
f 116/9/2 114/9/2 119/9/2
f 119/9/2 114/9/2 120/9/2
f 123/1/3 122/1/3 121/1/3
f 124/1/3 122/1/3 123/1/3
f 125/1/3 122/1/3 124/1/3
f 127/1/3 126/1/3 125/1/3
f 127/1/3 125/1/3 124/1/3
f 128/1/3 126/1/3 127/1/3
f 129/1/3 126/1/3 128/1/3
f 130/1/3 126/1/3 129/1/3
f 132/5/3 130/5/3 129/5/3
f 132/5/3 131/5/3 130/5/3
f 134/5/3 132/5/3 129/5/3
f 134/5/3 133/5/3 132/5/3
f 135/5/3 133/5/3 134/5/3
f 136/5/3 133/5/3 135/5/3
f 138/9/3 137/9/3 136/9/3
f 140/5/3 134/5/3 129/5/3
f 140/8/3 135/8/3 134/8/3
f 141/5/3 136/5/3 135/5/3
f 141/8/3 135/8/3 140/8/3
f 143/5/3 140/5/3 129/5/3
f 143/5/3 141/5/3 140/5/3
f 144/5/3 141/5/3 143/5/3
f 145/9/3 139/9/3 138/9/3
f 145/5/3 141/5/3 144/5/3
f 145/9/3 138/9/3 136/9/3
f 145/5/3 136/5/3 141/5/3
f 146/9/3 139/9/3 145/9/3
f 147/2/3 144/2/3 143/2/3
f 147/2/3 143/2/3 142/2/3
f 148/2/3 144/2/3 147/2/3
f 149/10/3 148/10/3 147/10/3
f 150/2/3 144/2/3 148/2/3
f 150/10/3 148/10/3 149/10/3
f 151/2/3 150/2/3 149/2/3
f 152/2/3 144/2/3 150/2/3
f 152/2/3 150/2/3 151/2/3
f 153/10/3 152/10/3 151/10/3
f 154/2/3 144/2/3 152/2/3
f 154/10/3 152/10/3 153/10/3
f 155/2/3 154/2/3 153/2/3
f 156/2/3 144/2/3 154/2/3
f 156/2/3 154/2/3 155/2/3
f 157/10/3 156/10/3 155/10/3
f 158/2/3 144/2/3 156/2/3
f 158/10/3 156/10/3 157/10/3
f 159/2/3 158/2/3 157/2/3
f 160/2/3 158/2/3 159/2/3
f 161/6/3 145/6/3 144/6/3
f 161/2/3 158/2/3 160/2/3
f 161/2/3 144/2/3 158/2/3
f 162/8/3 161/8/3 160/8/3
f 163/6/3 145/6/3 161/6/3
f 163/8/3 161/8/3 162/8/3
f 164/4/3 163/4/3 162/4/3
f 165/6/3 145/6/3 163/6/3
f 165/4/3 163/4/3 164/4/3
f 166/8/3 165/8/3 164/8/3
f 167/6/3 145/6/3 165/6/3
f 167/8/3 165/8/3 166/8/3
f 168/4/3 167/4/3 166/4/3
f 169/6/3 145/6/3 167/6/3
f 169/4/3 167/4/3 168/4/3
f 170/6/3 145/6/3 169/6/3
f 172/6/3 170/6/3 169/6/3
f 173/9/3 171/9/3 170/9/3
f 173/6/3 170/6/3 172/6/3
f 174/9/3 171/9/3 173/9/3
f 178/10/3 176/10/3 175/10/3
f 179/10/3 176/10/3 178/10/3
f 180/10/3 176/10/3 179/10/3
f 181/10/3 178/10/3 177/10/3
f 181/10/3 179/10/3 178/10/3
f 182/10/3 179/10/3 181/10/3
f 184/10/3 181/10/3 177/10/3
f 185/7/3 183/7/3 182/7/3
f 186/7/3 183/7/3 185/7/3
f 187/10/3 184/10/3 177/10/3
f 187/7/3 185/7/3 184/7/3
f 188/7/3 185/7/3 187/7/3
f 189/10/3 187/10/3 177/10/3
f 191/10/3 189/10/3 177/10/3
f 191/10/3 190/10/3 189/10/3
f 192/10/3 190/10/3 191/10/3
f 195/9/3 194/9/3 193/9/3
f 196/9/3 195/9/3 193/9/3
f 197/9/3 195/9/3 196/9/3
f 200/9/3 199/9/3 198/9/3
f 201/9/3 199/9/3 200/9/3
f 202/9/4 203/9/4 204/9/4
f 202/9/4 204/9/4 205/9/4
f 205/9/4 204/9/4 206/9/4
f 207/9/4 208/9/4 209/9/4
f 209/9/4 208/9/4 210/9/4
f 211/10/4 212/10/4 214/10/4
f 214/10/4 212/10/4 215/10/4
f 215/10/4 212/10/4 216/10/4
f 213/10/4 214/10/4 217/10/4
f 214/10/4 215/10/4 217/10/4
f 217/10/4 215/10/4 218/10/4
f 213/10/4 217/10/4 220/10/4
f 218/7/4 219/7/4 221/7/4
f 221/7/4 219/7/4 222/7/4
f 213/10/4 220/10/4 223/10/4
f 220/7/4 221/7/4 223/7/4
f 223/7/4 221/7/4 224/7/4
f 213/10/4 223/10/4 225/10/4
f 213/10/4 225/10/4 227/10/4
f 225/10/4 226/10/4 227/10/4
f 227/10/4 226/10/4 228/10/4
f 229/1/4 230/1/4 231/1/4
f 231/1/4 230/1/4 232/1/4
f 232/1/4 230/1/4 233/1/4
f 233/1/4 234/1/4 235/1/4
f 232/1/4 233/1/4 235/1/4
f 235/1/4 234/1/4 236/1/4
f 236/1/4 234/1/4 237/1/4
f 237/1/4 234/1/4 238/1/4
f 237/5/4 238/5/4 240/5/4
f 238/5/4 239/5/4 240/5/4
f 240/5/4 241/5/4 242/5/4
f 242/9/4 243/9/4 244/9/4
f 237/5/4 240/5/4 247/5/4
f 240/5/4 242/5/4 247/5/4
f 247/5/4 242/5/4 248/5/4
f 244/9/4 245/9/4 249/9/4
f 248/5/4 242/5/4 249/5/4
f 242/9/4 244/9/4 249/9/4
f 249/9/4 245/9/4 250/9/4
f 247/2/4 248/2/4 251/2/4
f 246/2/4 247/2/4 251/2/4
f 251/2/4 248/2/4 252/2/4
f 251/10/4 252/10/4 253/10/4
f 252/2/4 248/2/4 254/2/4
f 253/10/4 252/10/4 254/10/4
f 253/2/4 254/2/4 255/2/4
f 254/2/4 248/2/4 256/2/4
f 255/2/4 254/2/4 256/2/4
f 255/10/4 256/10/4 257/10/4
f 256/2/4 248/2/4 258/2/4
f 257/10/4 256/10/4 258/10/4
f 257/2/4 258/2/4 259/2/4
f 258/2/4 248/2/4 260/2/4
f 259/2/4 258/2/4 260/2/4
f 259/10/4 260/10/4 261/10/4
f 260/2/4 248/2/4 262/2/4
f 261/10/4 260/10/4 262/10/4
f 261/2/4 262/2/4 263/2/4
f 263/2/4 262/2/4 264/2/4
f 248/6/4 249/6/4 265/6/4
f 264/2/4 262/2/4 265/2/4
f 262/2/4 248/2/4 265/2/4
f 264/8/4 265/8/4 266/8/4
f 265/6/4 249/6/4 267/6/4
f 266/8/4 265/8/4 267/8/4
f 266/4/4 267/4/4 268/4/4
f 267/6/4 249/6/4 269/6/4
f 268/4/4 267/4/4 269/4/4
f 268/8/4 269/8/4 270/8/4
f 269/6/4 249/6/4 271/6/4
f 270/8/4 269/8/4 271/8/4
f 270/4/4 271/4/4 272/4/4
f 271/6/4 249/6/4 273/6/4
f 272/4/4 271/4/4 273/4/4
f 273/6/4 249/6/4 274/6/4
f 273/6/4 274/6/4 276/6/4
f 274/9/4 275/9/4 277/9/4
f 276/6/4 274/6/4 277/6/4
f 277/9/4 275/9/4 278/9/4
f 281/10/5 280/10/5 279/10/5
f 282/10/5 280/10/5 281/10/5
f 287/10/5 286/10/5 285/10/5
f 288/10/5 286/10/5 287/10/5
f 289/1/5 284/1/5 283/1/5
f 290/1/5 284/1/5 289/1/5
f 303/7/5 302/7/5 301/7/5
f 304/7/5 302/7/5 303/7/5
f 305/1/5 292/1/5 291/1/5
f 306/1/5 292/1/5 305/1/5
f 307/2/5 294/2/5 293/2/5
f 308/10/5 295/10/5 294/10/5
f 308/2/5 294/2/5 307/2/5
f 309/2/5 296/2/5 295/2/5
f 309/10/5 295/10/5 308/10/5
f 310/10/5 297/10/5 296/10/5
f 310/2/5 296/2/5 309/2/5
f 311/2/5 298/2/5 297/2/5
f 311/10/5 297/10/5 310/10/5
f 312/10/5 299/10/5 298/10/5
f 312/2/5 298/2/5 311/2/5
f 313/2/5 300/2/5 299/2/5
f 313/10/5 299/10/5 312/10/5
f 314/2/5 300/2/5 313/2/5
f 323/1/5 316/1/5 315/1/5
f 324/1/5 316/1/5 323/1/5
f 325/5/5 317/5/5 316/5/5
f 325/1/5 316/1/5 324/1/5
f 326/5/5 317/5/5 325/5/5
f 327/5/5 317/5/5 326/5/5
f 328/5/5 317/5/5 327/5/5
f 329/1/5 323/1/5 315/1/5
f 330/1/5 325/1/5 324/1/5
f 331/1/5 325/1/5 330/1/5
f 332/5/5 327/5/5 326/5/5
f 333/5/5 327/5/5 332/5/5
f 334/5/5 317/5/5 328/5/5
f 335/1/5 331/1/5 330/1/5
f 335/1/5 329/1/5 315/1/5
f 335/1/5 330/1/5 329/1/5
f 336/5/5 333/5/5 332/5/5
f 336/1/5 331/1/5 335/1/5
f 336/5/5 334/5/5 333/5/5
f 336/5/5 332/5/5 331/5/5
f 337/5/5 317/5/5 334/5/5
f 337/5/5 334/5/5 336/5/5
f 338/8/5 319/8/5 318/8/5
f 339/4/5 320/4/5 319/4/5
f 339/8/5 319/8/5 338/8/5
f 340/8/5 321/8/5 320/8/5
f 340/4/5 320/4/5 339/4/5
f 341/4/5 322/4/5 321/4/5
f 341/8/5 321/8/5 340/8/5
f 342/4/5 322/4/5 341/4/5
f 345/6/5 344/6/5 343/6/5
f 346/6/5 344/6/5 345/6/5
f 349/9/5 348/9/5 347/9/5
f 350/9/5 348/9/5 349/9/5
f 351/10/6 352/10/6 355/10/6
f 355/10/6 352/10/6 356/10/6
f 353/10/6 354/10/6 357/10/6
f 357/10/6 354/10/6 358/10/6
f 359/10/6 360/10/6 363/10/6
f 363/10/6 360/10/6 364/10/6
f 361/7/6 362/7/6 365/7/6
f 365/7/6 362/7/6 366/7/6
f 367/1/6 368/1/6 369/1/6
f 369/1/6 368/1/6 370/1/6
f 371/1/6 372/1/6 373/1/6
f 373/1/6 372/1/6 374/1/6
f 375/5/6 376/5/6 377/5/6
f 377/5/6 376/5/6 378/5/6
f 381/6/6 382/6/6 383/6/6
f 381/6/6 383/6/6 384/6/6
f 379/5/6 380/5/6 385/5/6
f 385/5/6 380/5/6 386/5/6
f 381/6/6 384/6/6 387/6/6
f 387/6/6 384/6/6 388/6/6
f 389/9/6 390/9/6 393/9/6
f 393/9/6 390/9/6 394/9/6
f 391/3/6 392/3/6 395/3/6
f 395/3/6 392/3/6 396/3/6
f 397/9/6 398/9/6 401/9/6
f 401/9/6 398/9/6 402/9/6
f 399/9/6 400/9/6 403/9/6
f 403/9/6 400/9/6 404/9/6
f 405/9/6 406/9/6 409/9/6
f 409/9/6 406/9/6 410/9/6
f 407/9/6 408/9/6 411/9/6
f 411/9/6 408/9/6 412/9/6
f 413/9/6 414/9/6 415/9/6
f 415/9/6 414/9/6 416/9/6
