# MagicaVoxel @ Ephtracy

# group
o table

# material
mtllib computer-5-table.mtl
usemtl palette

# normals
vn -1 0 0
vn 1 0 0
vn 0 0 1
vn 0 0 -1
vn 0 -1 0
vn 0 1 0

# texcoords
vt 0.908203 0.5
vt 0.919922 0.5

# verts
v -2.8 1.8 1.4
v -2.8 1.8 -1.8
v -2.8 1.9 1.4
v -2.8 1.9 -1.8
v -2.7 0 1.3
v -2.7 0 1
v -2.7 0 -1.4
v -2.7 0 -1.7
v -2.7 1.8 1.3
v -2.7 1.8 1
v -2.7 1.8 -1.4
v -2.7 1.8 -1.7
v -1.5 1.8 -1.8
v -1.5 1.8 -1.9
v -1.5 1.9 -1.8
v -1.5 1.9 -1.9
v 0.5 1.8 -1.8
v 0.5 1.8 -1.9
v 0.5 1.9 -1.8
v 0.5 1.9 -1.9
v 1.4 1.8 -1.8
v 1.4 1.8 -1.9
v 1.4 1.9 -1.8
v 1.4 1.9 -1.9
v 1.8 1.8 -1.8
v 1.8 1.8 -1.9
v 1.8 1.9 -1.8
v 1.8 1.9 -1.9
v 2.4 0 1.3
v 2.4 0 1
v 2.4 0 -1.4
v 2.4 0 -1.7
v 2.4 1.8 1.3
v 2.4 1.8 1
v 2.4 1.8 -1.4
v 2.4 1.8 -1.7
v -2.4 0 1.3
v -2.4 0 1
v -2.4 0 -1.4
v -2.4 0 -1.7
v -2.4 1.8 1.3
v -2.4 1.8 1
v -2.4 1.8 -1.4
v -2.4 1.8 -1.7
v -1.4 1.8 -1.8
v -1.4 1.8 -1.9
v -1.4 1.9 -1.8
v -1.4 1.9 -1.9
v 0.7 1.8 -1.8
v 0.7 1.8 -1.9
v 0.7 1.9 -1.8
v 0.7 1.9 -1.9
v 1.5 1.8 -1.8
v 1.5 1.8 -1.9
v 1.5 1.9 -1.8
v 1.5 1.9 -1.9
v 1.9 1.8 -1.8
v 1.9 1.8 -1.9
v 1.9 1.9 -1.8
v 1.9 1.9 -1.9
v 2.7 0 1.3
v 2.7 0 1
v 2.7 0 -1.4
v 2.7 0 -1.7
v 2.7 1.8 1.3
v 2.7 1.8 1
v 2.7 1.8 -1.4
v 2.7 1.8 -1.7
v 2.8 1.8 1.4
v 2.8 1.8 -1.8
v 2.8 1.9 1.4
v 2.8 1.9 -1.8
v -2.8 1.8 1.4
v -2.8 1.9 1.4
v 2.8 1.8 1.4
v 2.8 1.9 1.4
v -2.7 0 1.3
v -2.7 1.8 1.3
v -2.4 0 1.3
v -2.4 1.8 1.3
v 2.4 0 1.3
v 2.4 1.8 1.3
v 2.7 0 1.3
v 2.7 1.8 1.3
v -2.7 0 -1.4
v -2.7 1.8 -1.4
v -2.4 0 -1.4
v -2.4 1.8 -1.4
v 2.4 0 -1.4
v 2.4 1.8 -1.4
v 2.7 0 -1.4
v 2.7 1.8 -1.4
v -2.7 0 1
v -2.7 1.8 1
v -2.4 0 1
v -2.4 1.8 1
v 2.4 0 1
v 2.4 1.8 1
v 2.7 0 1
v 2.7 1.8 1
v -2.7 0 -1.7
v -2.7 1.8 -1.7
v -2.4 0 -1.7
v -2.4 1.8 -1.7
v 2.4 0 -1.7
v 2.4 1.8 -1.7
v 2.7 0 -1.7
v 2.7 1.8 -1.7
v -2.8 1.8 -1.8
v -2.8 1.9 -1.8
v -1.5 1.8 -1.8
v -1.5 1.9 -1.8
v -1.4 1.8 -1.8
v -1.4 1.9 -1.8
v 0.5 1.8 -1.8
v 0.5 1.9 -1.8
v 0.7 1.8 -1.8
v 0.7 1.9 -1.8
v 1.4 1.8 -1.8
v 1.4 1.9 -1.8
v 1.5 1.8 -1.8
v 1.5 1.9 -1.8
v 1.8 1.8 -1.8
v 1.8 1.9 -1.8
v 1.9 1.8 -1.8
v 1.9 1.9 -1.8
v 2.8 1.8 -1.8
v 2.8 1.9 -1.8
v -1.5 1.8 -1.9
v -1.5 1.9 -1.9
v -1.4 1.8 -1.9
v -1.4 1.9 -1.9
v 0.5 1.8 -1.9
v 0.5 1.9 -1.9
v 0.7 1.8 -1.9
v 0.7 1.9 -1.9
v 1.4 1.8 -1.9
v 1.4 1.9 -1.9
v 1.5 1.8 -1.9
v 1.5 1.9 -1.9
v 1.8 1.8 -1.9
v 1.8 1.9 -1.9
v 1.9 1.8 -1.9
v 1.9 1.9 -1.9
v -2.7 0 1.3
v -2.4 0 1.3
v 2.4 0 1.3
v 2.7 0 1.3
v -2.7 0 1
v -2.4 0 1
v 2.4 0 1
v 2.7 0 1
v -2.7 0 -1.4
v -2.4 0 -1.4
v 2.4 0 -1.4
v 2.7 0 -1.4
v -2.7 0 -1.7
v -2.4 0 -1.7
v 2.4 0 -1.7
v 2.7 0 -1.7
v -2.8 1.8 1.4
v 2.8 1.8 1.4
v -2.7 1.8 1.3
v -2.4 1.8 1.3
v 2.4 1.8 1.3
v 2.7 1.8 1.3
v -2.7 1.8 1
v -2.4 1.8 1
v 2.4 1.8 1
v 2.7 1.8 1
v -2.7 1.8 -1.4
v -2.4 1.8 -1.4
v 2.4 1.8 -1.4
v 2.7 1.8 -1.4
v -2.7 1.8 -1.7
v -2.4 1.8 -1.7
v 2.4 1.8 -1.7
v 2.7 1.8 -1.7
v -2.8 1.8 -1.8
v -1.5 1.8 -1.8
v -1.4 1.8 -1.8
v 0.5 1.8 -1.8
v 0.7 1.8 -1.8
v 1.4 1.8 -1.8
v 1.5 1.8 -1.8
v 1.8 1.8 -1.8
v 1.9 1.8 -1.8
v 2.8 1.8 -1.8
v -1.5 1.8 -1.9
v -1.4 1.8 -1.9
v 0.5 1.8 -1.9
v 0.7 1.8 -1.9
v 1.4 1.8 -1.9
v 1.5 1.8 -1.9
v 1.8 1.8 -1.9
v 1.9 1.8 -1.9
v -2.8 1.9 1.4
v 2.8 1.9 1.4
v -2.8 1.9 -1.8
v -1.5 1.9 -1.8
v -1.4 1.9 -1.8
v 0.5 1.9 -1.8
v 0.7 1.9 -1.8
v 1.4 1.9 -1.8
v 1.5 1.9 -1.8
v 1.8 1.9 -1.8
v 1.9 1.9 -1.8
v 2.8 1.9 -1.8
v -1.5 1.9 -1.9
v -1.4 1.9 -1.9
v 0.5 1.9 -1.9
v 0.7 1.9 -1.9
v 1.4 1.9 -1.9
v 1.5 1.9 -1.9
v 1.8 1.9 -1.9
v 1.9 1.9 -1.9

# faces
f 3/2/1 2/2/1 1/2/1
f 4/2/1 2/2/1 3/2/1
f 9/2/1 6/2/1 5/2/1
f 10/2/1 6/2/1 9/2/1
f 11/2/1 8/2/1 7/2/1
f 12/2/1 8/2/1 11/2/1
f 15/1/1 14/1/1 13/1/1
f 16/1/1 14/1/1 15/1/1
f 19/1/1 18/1/1 17/1/1
f 20/1/1 18/1/1 19/1/1
f 23/1/1 22/1/1 21/1/1
f 24/1/1 22/1/1 23/1/1
f 27/1/1 26/1/1 25/1/1
f 28/1/1 26/1/1 27/1/1
f 33/2/1 30/2/1 29/2/1
f 34/2/1 30/2/1 33/2/1
f 35/2/1 32/2/1 31/2/1
f 36/2/1 32/2/1 35/2/1
f 37/2/2 38/2/2 41/2/2
f 41/2/2 38/2/2 42/2/2
f 39/2/2 40/2/2 43/2/2
f 43/2/2 40/2/2 44/2/2
f 45/1/2 46/1/2 47/1/2
f 47/1/2 46/1/2 48/1/2
f 49/1/2 50/1/2 51/1/2
f 51/1/2 50/1/2 52/1/2
f 53/1/2 54/1/2 55/1/2
f 55/1/2 54/1/2 56/1/2
f 57/1/2 58/1/2 59/1/2
f 59/1/2 58/1/2 60/1/2
f 61/2/2 62/2/2 65/2/2
f 65/2/2 62/2/2 66/2/2
f 63/2/2 64/2/2 67/2/2
f 67/2/2 64/2/2 68/2/2
f 69/2/2 70/2/2 71/2/2
f 71/2/2 70/2/2 72/2/2
f 75/2/3 74/2/3 73/2/3
f 76/2/3 74/2/3 75/2/3
f 79/2/3 78/2/3 77/2/3
f 80/2/3 78/2/3 79/2/3
f 83/2/3 82/2/3 81/2/3
f 84/2/3 82/2/3 83/2/3
f 87/2/3 86/2/3 85/2/3
f 88/2/3 86/2/3 87/2/3
f 91/2/3 90/2/3 89/2/3
f 92/2/3 90/2/3 91/2/3
f 93/2/4 94/2/4 95/2/4
f 95/2/4 94/2/4 96/2/4
f 97/2/4 98/2/4 99/2/4
f 99/2/4 98/2/4 100/2/4
f 101/2/4 102/2/4 103/2/4
f 103/2/4 102/2/4 104/2/4
f 105/2/4 106/2/4 107/2/4
f 107/2/4 106/2/4 108/2/4
f 109/2/4 110/2/4 111/2/4
f 111/2/4 110/2/4 112/2/4
f 113/2/4 114/2/4 115/2/4
f 115/2/4 114/2/4 116/2/4
f 117/2/4 118/2/4 119/2/4
f 119/2/4 118/2/4 120/2/4
f 121/2/4 122/2/4 123/2/4
f 123/2/4 122/2/4 124/2/4
f 125/2/4 126/2/4 127/2/4
f 127/2/4 126/2/4 128/2/4
f 129/1/4 130/1/4 131/1/4
f 131/1/4 130/1/4 132/1/4
f 133/1/4 134/1/4 135/1/4
f 135/1/4 134/1/4 136/1/4
f 137/1/4 138/1/4 139/1/4
f 139/1/4 138/1/4 140/1/4
f 141/1/4 142/1/4 143/1/4
f 143/1/4 142/1/4 144/1/4
f 149/2/5 146/2/5 145/2/5
f 150/2/5 146/2/5 149/2/5
f 151/2/5 148/2/5 147/2/5
f 152/2/5 148/2/5 151/2/5
f 157/2/5 154/2/5 153/2/5
f 158/2/5 154/2/5 157/2/5
f 159/2/5 156/2/5 155/2/5
f 160/2/5 156/2/5 159/2/5
f 163/2/5 162/2/5 161/2/5
f 164/2/5 162/2/5 163/2/5
f 165/2/5 162/2/5 164/2/5
f 166/2/5 162/2/5 165/2/5
f 167/2/5 163/2/5 161/2/5
f 168/2/5 165/2/5 164/2/5
f 169/2/5 165/2/5 168/2/5
f 170/2/5 162/2/5 166/2/5
f 171/2/5 169/2/5 168/2/5
f 171/2/5 170/2/5 169/2/5
f 171/2/5 167/2/5 161/2/5
f 171/2/5 168/2/5 167/2/5
f 172/2/5 170/2/5 171/2/5
f 173/2/5 170/2/5 172/2/5
f 174/2/5 162/2/5 170/2/5
f 174/2/5 170/2/5 173/2/5
f 175/2/5 171/2/5 161/2/5
f 176/2/5 173/2/5 172/2/5
f 177/2/5 173/2/5 176/2/5
f 178/2/5 162/2/5 174/2/5
f 179/2/5 175/2/5 161/2/5
f 179/2/5 178/2/5 177/2/5
f 179/2/5 177/2/5 176/2/5
f 179/2/5 176/2/5 175/2/5
f 180/2/5 178/2/5 179/2/5
f 181/2/5 178/2/5 180/2/5
f 182/2/5 178/2/5 181/2/5
f 183/2/5 178/2/5 182/2/5
f 184/2/5 178/2/5 183/2/5
f 185/2/5 178/2/5 184/2/5
f 186/2/5 178/2/5 185/2/5
f 187/2/5 178/2/5 186/2/5
f 188/2/5 162/2/5 178/2/5
f 188/2/5 178/2/5 187/2/5
f 189/1/5 181/1/5 180/1/5
f 190/1/5 181/1/5 189/1/5
f 191/1/5 183/1/5 182/1/5
f 192/1/5 183/1/5 191/1/5
f 193/1/5 185/1/5 184/1/5
f 194/1/5 185/1/5 193/1/5
f 195/1/5 187/1/5 186/1/5
f 196/1/5 187/1/5 195/1/5
f 197/2/6 198/2/6 199/2/6
f 199/2/6 198/2/6 200/2/6
f 200/2/6 198/2/6 201/2/6
f 201/2/6 198/2/6 202/2/6
f 202/2/6 198/2/6 203/2/6
f 203/2/6 198/2/6 204/2/6
f 204/2/6 198/2/6 205/2/6
f 205/2/6 198/2/6 206/2/6
f 206/2/6 198/2/6 207/2/6
f 207/2/6 198/2/6 208/2/6
f 200/1/6 201/1/6 209/1/6
f 209/1/6 201/1/6 210/1/6
f 202/1/6 203/1/6 211/1/6
f 211/1/6 203/1/6 212/1/6
f 204/1/6 205/1/6 213/1/6
f 213/1/6 205/1/6 214/1/6
f 206/1/6 207/1/6 215/1/6
f 215/1/6 207/1/6 216/1/6
