# MagicaVoxel @ Ephtracy

# group
o keyboard

# material
mtllib computer-4-keyboard.mtl
usemtl palette

# normals
vn -1 0 0
vn 1 0 0
vn 0 0 1
vn 0 0 -1
vn 0 -1 0
vn 0 1 0

# texcoords
vt 0.876953 0.5
vt 0.880859 0.5
vt 0.908203 0.5
vt 0.912109 0.5
vt 0.916016 0.5

# verts
v -1.6 1.9 1
v -1.6 1.9 0.0999999
v -1.6 2 1
v -1.6 2 0.0999999
v -1.5 2 0.9
v -1.5 2 0.8
v -1.5 2 0.7
v -1.5 2 0.6
v -1.5 2 0.5
v -1.5 2 0.4
v -1.5 2 0.3
v -1.5 2 0.2
v -1.5 2.1 0.9
v -1.5 2.1 0.8
v -1.5 2.1 0.7
v -1.5 2.1 0.6
v -1.5 2.1 0.5
v -1.5 2.1 0.4
v -1.5 2.1 0.3
v -1.5 2.1 0.2
v -1.3 2 0.3
v -1.3 2 0.2
v -1.3 2.1 0.3
v -1.3 2.1 0.2
v -0.8 2 0.3
v -0.8 2 0.2
v -0.8 2.1 0.3
v -0.8 2.1 0.2
v -0.3 2 0.3
v -0.3 2 0.2
v -0.3 2.1 0.3
v -0.3 2.1 0.2
v 0.2 2 0.9
v 0.2 2 0.8
v 0.2 2 0.6
v 0.2 2 0.5
v 0.2 2 0.4
v 0.2 2 0.3
v 0.2 2 0.2
v 0.2 2.1 0.9
v 0.2 2.1 0.8
v 0.2 2.1 0.6
v 0.2 2.1 0.5
v 0.2 2.1 0.4
v 0.2 2.1 0.3
v 0.2 2.1 0.2
v 0.3 2 0.8
v 0.3 2 0.7
v 0.3 2.1 0.8
v 0.3 2.1 0.7
v 0.6 2 0.9
v 0.6 2 0.8
v 0.6 2 0.7
v 0.6 2 0.6
v 0.6 2 0.5
v 0.6 2 0.4
v 0.6 2 0.3
v 0.6 2 0.2
v 0.6 2.1 0.9
v 0.6 2.1 0.8
v 0.6 2.1 0.7
v 0.6 2.1 0.6
v 0.6 2.1 0.5
v 0.6 2.1 0.4
v 0.6 2.1 0.3
v 0.6 2.1 0.2
v -1.4 2 0.3
v -1.4 2 0.2
v -1.4 2.1 0.3
v -1.4 2.1 0.2
v -0.9 2 0.3
v -0.9 2 0.2
v -0.9 2.1 0.3
v -0.9 2.1 0.2
v -0.4 2 0.3
v -0.4 2 0.2
v -0.4 2.1 0.3
v -0.4 2.1 0.2
v 0.1 2 0.9
v 0.1 2 0.8
v 0.1 2 0.7
v 0.1 2 0.6
v 0.1 2 0.5
v 0.1 2 0.4
v 0.1 2 0.3
v 0.1 2 0.2
v 0.1 2.1 0.9
v 0.1 2.1 0.8
v 0.1 2.1 0.7
v 0.1 2.1 0.6
v 0.1 2.1 0.5
v 0.1 2.1 0.4
v 0.1 2.1 0.3
v 0.1 2.1 0.2
v 0.4 2 0.8
v 0.4 2 0.7
v 0.4 2.1 0.8
v 0.4 2.1 0.7
v 0.5 2 0.9
v 0.5 2 0.8
v 0.5 2 0.6
v 0.5 2 0.5
v 0.5 2 0.4
v 0.5 2 0.3
v 0.5 2 0.2
v 0.5 2.1 0.9
v 0.5 2.1 0.8
v 0.5 2.1 0.6
v 0.5 2.1 0.5
v 0.5 2.1 0.4
v 0.5 2.1 0.3
v 0.5 2.1 0.2
v 1 2 0.9
v 1 2 0.8
v 1 2 0.7
v 1 2 0.6
v 1 2 0.5
v 1 2 0.4
v 1 2 0.3
v 1 2 0.2
v 1 2.1 0.9
v 1 2.1 0.8
v 1 2.1 0.7
v 1 2.1 0.6
v 1 2.1 0.5
v 1 2.1 0.4
v 1 2.1 0.3
v 1 2.1 0.2
v 1.1 1.9 1
v 1.1 1.9 0.0999999
v 1.1 2 1
v 1.1 2 0.0999999
v -1.6 1.9 1
v -1.6 2 1
v 1.1 1.9 1
v 1.1 2 1
v -1.5 2 0.9
v -1.5 2.1 0.9
v 0.1 2 0.9
v 0.1 2.1 0.9
v 0.2 2 0.9
v 0.2 2.1 0.9
v 0.5 2 0.9
v 0.5 2.1 0.9
v 0.6 2 0.9
v 0.6 2.1 0.9
v 1 2 0.9
v 1 2.1 0.9
v 0.2 2 0.6
v 0.2 2.1 0.6
v 0.5 2 0.6
v 0.5 2.1 0.6
v -1.5 2 0.3
v -1.5 2.1 0.3
v -1.4 2 0.3
v -1.4 2.1 0.3
v -1.3 2 0.3
v -1.3 2.1 0.3
v -0.9 2 0.3
v -0.9 2.1 0.3
v -0.8 2 0.3
v -0.8 2.1 0.3
v -0.4 2 0.3
v -0.4 2.1 0.3
v -0.3 2 0.3
v -0.3 2.1 0.3
v 0.1 2 0.3
v 0.1 2.1 0.3
v 0.2 2 0.3
v 0.2 2.1 0.3
v 0.5 2 0.3
v 0.5 2.1 0.3
v 0.6 2 0.3
v 0.6 2.1 0.3
v 0.7 2 0.3
v 0.7 2.1 0.3
v 1 2 0.3
v 1 2.1 0.3
v 0.2 2 0.8
v 0.2 2.1 0.8
v 0.3 2 0.8
v 0.3 2.1 0.8
v 0.4 2 0.8
v 0.4 2.1 0.8
v 0.5 2 0.8
v 0.5 2.1 0.8
v 0.3 2 0.7
v 0.3 2.1 0.7
v 0.4 2 0.7
v 0.4 2.1 0.7
v -1.5 2 0.4
v -1.5 2.1 0.4
v 0.1 2 0.4
v 0.1 2.1 0.4
v 0.2 2 0.4
v 0.2 2.1 0.4
v 0.5 2 0.4
v 0.5 2.1 0.4
v 0.6 2 0.4
v 0.6 2.1 0.4
v 1 2 0.4
v 1 2.1 0.4
v -1.5 2 0.2
v -1.5 2.1 0.2
v -1.4 2 0.2
v -1.4 2.1 0.2
v -1.3 2 0.2
v -1.3 2.1 0.2
v -0.9 2 0.2
v -0.9 2.1 0.2
v -0.8 2 0.2
v -0.8 2.1 0.2
v -0.4 2 0.2
v -0.4 2.1 0.2
v -0.3 2 0.2
v -0.3 2.1 0.2
v 0.1 2 0.2
v 0.1 2.1 0.2
v 0.2 2 0.2
v 0.2 2.1 0.2
v 0.5 2 0.2
v 0.5 2.1 0.2
v 0.6 2 0.2
v 0.6 2.1 0.2
v 0.7 2 0.2
v 0.7 2.1 0.2
v 1 2 0.2
v 1 2.1 0.2
v -1.6 1.9 0.0999999
v -1.6 2 0.0999999
v 1.1 1.9 0.0999999
v 1.1 2 0.0999999
v -1.6 1.9 1
v 1.1 1.9 1
v -1.5 1.9 0.9
v 0.1 1.9 0.9
v 0.2 1.9 0.9
v 0.5 1.9 0.9
v 0.6 1.9 0.9
v 0.9 1.9 0.9
v 0.2 1.9 0.8
v 0.3 1.9 0.8
v 0.4 1.9 0.8
v 0.5 1.9 0.8
v 0.3 1.9 0.7
v 0.4 1.9 0.7
v 0.2 1.9 0.6
v 0.5 1.9 0.6
v -1.5 1.9 0.4
v 0.1 1.9 0.4
v 0.2 1.9 0.4
v 0.5 1.9 0.4
v 0.6 1.9 0.4
v 0.9 1.9 0.4
v -1.5 1.9 0.3
v -1.4 1.9 0.3
v -1.3 1.9 0.3
v -0.9 1.9 0.3
v -0.8 1.9 0.3
v -0.4 1.9 0.3
v -0.3 1.9 0.3
v 0.1 1.9 0.3
v 0.2 1.9 0.3
v 0.5 1.9 0.3
v 0.7 1.9 0.3
v 0.9 1.9 0.3
v -1.5 1.9 0.2
v -1.4 1.9 0.2
v -1.3 1.9 0.2
v -0.9 1.9 0.2
v -0.8 1.9 0.2
v -0.4 1.9 0.2
v -0.3 1.9 0.2
v 0.1 1.9 0.2
v 0.2 1.9 0.2
v 0.5 1.9 0.2
v 0.7 1.9 0.2
v 0.9 1.9 0.2
v -1.6 1.9 0.0999999
v 1.1 1.9 0.0999999
v -1.6 2 1
v 1.1 2 1
v -1.5 2 0.9
v 0.1 2 0.9
v 0.2 2 0.9
v 0.5 2 0.9
v 0.6 2 0.9
v 1 2 0.9
v -1.5 2 0.8
v 0.1 2 0.8
v 0.2 2 0.8
v 0.3 2 0.8
v 0.4 2 0.8
v 0.5 2 0.8
v 0.6 2 0.8
v 1 2 0.8
v -1.5 2 0.7
v 0.1 2 0.7
v 0.3 2 0.7
v 0.4 2 0.7
v 0.6 2 0.7
v 1 2 0.7
v -1.5 2 0.6
v 0.1 2 0.6
v 0.2 2 0.6
v 0.5 2 0.6
v 0.6 2 0.6
v 1 2 0.6
v -1.5 2 0.5
v 0.1 2 0.5
v 0.2 2 0.5
v 0.5 2 0.5
v 0.6 2 0.5
v 1 2 0.5
v -1.5 2 0.4
v 0.1 2 0.4
v 0.2 2 0.4
v 0.5 2 0.4
v 0.6 2 0.4
v 1 2 0.4
v -1.5 2 0.3
v -1.4 2 0.3
v -1.3 2 0.3
v -0.9 2 0.3
v -0.8 2 0.3
v -0.4 2 0.3
v -0.3 2 0.3
v 0.1 2 0.3
v 0.2 2 0.3
v 0.5 2 0.3
v 0.6 2 0.3
v 0.7 2 0.3
v 1 2 0.3
v -1.5 2 0.2
v -1.4 2 0.2
v -1.3 2 0.2
v -0.9 2 0.2
v -0.8 2 0.2
v -0.4 2 0.2
v -0.3 2 0.2
v 0.1 2 0.2
v 0.2 2 0.2
v 0.5 2 0.2
v 0.6 2 0.2
v 0.7 2 0.2
v 1 2 0.2
v -1.6 2 0.0999999
v 1.1 2 0.0999999
v -1.5 2.1 0.9
v 0.1 2.1 0.9
v 0.2 2.1 0.9
v 0.5 2.1 0.9
v 0.6 2.1 0.9
v 1 2.1 0.9
v -1.5 2.1 0.8
v 0.1 2.1 0.8
v 0.2 2.1 0.8
v 0.3 2.1 0.8
v 0.4 2.1 0.8
v 0.5 2.1 0.8
v 0.6 2.1 0.8
v 1 2.1 0.8
v -1.5 2.1 0.7
v 0.1 2.1 0.7
v 0.3 2.1 0.7
v 0.4 2.1 0.7
v 0.6 2.1 0.7
v 1 2.1 0.7
v -1.5 2.1 0.6
v 0.1 2.1 0.6
v 0.2 2.1 0.6
v 0.5 2.1 0.6
v 0.6 2.1 0.6
v 1 2.1 0.6
v -1.5 2.1 0.5
v 0.1 2.1 0.5
v 0.2 2.1 0.5
v 0.5 2.1 0.5
v 0.6 2.1 0.5
v 1 2.1 0.5
v -1.5 2.1 0.4
v 0.1 2.1 0.4
v 0.2 2.1 0.4
v 0.5 2.1 0.4
v 0.6 2.1 0.4
v 1 2.1 0.4
v -1.5 2.1 0.3
v -1.4 2.1 0.3
v -1.3 2.1 0.3
v -0.9 2.1 0.3
v -0.8 2.1 0.3
v -0.4 2.1 0.3
v -0.3 2.1 0.3
v 0.1 2.1 0.3
v 0.2 2.1 0.3
v 0.5 2.1 0.3
v 0.6 2.1 0.3
v 0.7 2.1 0.3
v 1 2.1 0.3
v -1.5 2.1 0.2
v -1.4 2.1 0.2
v -1.3 2.1 0.2
v -0.9 2.1 0.2
v -0.8 2.1 0.2
v -0.4 2.1 0.2
v -0.3 2.1 0.2
v 0.1 2.1 0.2
v 0.2 2.1 0.2
v 0.5 2.1 0.2
v 0.6 2.1 0.2
v 0.7 2.1 0.2
v 1 2.1 0.2

# faces
f 3/3/1 2/3/1 1/3/1
f 4/3/1 2/3/1 3/3/1
f 13/2/1 6/2/1 5/2/1
f 14/1/1 7/1/1 6/1/1
f 14/2/1 6/2/1 13/2/1
f 15/4/1 8/4/1 7/4/1
f 15/1/1 7/1/1 14/1/1
f 16/1/1 9/1/1 8/1/1
f 16/4/1 8/4/1 15/4/1
f 17/2/1 10/2/1 9/2/1
f 17/1/1 9/1/1 16/1/1
f 18/2/1 10/2/1 17/2/1
f 19/4/1 12/4/1 11/4/1
f 20/4/1 12/4/1 19/4/1
f 23/4/1 22/4/1 21/4/1
f 24/4/1 22/4/1 23/4/1
f 27/4/1 26/4/1 25/4/1
f 28/4/1 26/4/1 27/4/1
f 31/4/1 30/4/1 29/4/1
f 32/4/1 30/4/1 31/4/1
f 40/2/1 34/2/1 33/2/1
f 41/2/1 34/2/1 40/2/1
f 42/1/1 36/1/1 35/1/1
f 43/2/1 37/2/1 36/2/1
f 43/1/1 36/1/1 42/1/1
f 44/2/1 37/2/1 43/2/1
f 45/4/1 39/4/1 38/4/1
f 46/4/1 39/4/1 45/4/1
f 49/1/1 48/1/1 47/1/1
f 50/1/1 48/1/1 49/1/1
f 59/2/1 52/2/1 51/2/1
f 60/1/1 53/1/1 52/1/1
f 60/2/1 52/2/1 59/2/1
f 61/4/1 54/4/1 53/4/1
f 61/1/1 53/1/1 60/1/1
f 62/1/1 55/1/1 54/1/1
f 62/4/1 54/4/1 61/4/1
f 63/2/1 56/2/1 55/2/1
f 63/1/1 55/1/1 62/1/1
f 64/2/1 56/2/1 63/2/1
f 65/5/1 58/5/1 57/5/1
f 66/5/1 58/5/1 65/5/1
f 67/4/2 68/4/2 69/4/2
f 69/4/2 68/4/2 70/4/2
f 71/4/2 72/4/2 73/4/2
f 73/4/2 72/4/2 74/4/2
f 75/4/2 76/4/2 77/4/2
f 77/4/2 76/4/2 78/4/2
f 79/2/2 80/2/2 87/2/2
f 80/1/2 81/1/2 88/1/2
f 87/2/2 80/2/2 88/2/2
f 81/4/2 82/4/2 89/4/2
f 88/1/2 81/1/2 89/1/2
f 82/1/2 83/1/2 90/1/2
f 89/4/2 82/4/2 90/4/2
f 83/2/2 84/2/2 91/2/2
f 90/1/2 83/1/2 91/1/2
f 91/2/2 84/2/2 92/2/2
f 85/4/2 86/4/2 93/4/2
f 93/4/2 86/4/2 94/4/2
f 95/1/2 96/1/2 97/1/2
f 97/1/2 96/1/2 98/1/2
f 99/2/2 100/2/2 106/2/2
f 106/2/2 100/2/2 107/2/2
f 101/1/2 102/1/2 108/1/2
f 102/2/2 103/2/2 109/2/2
f 108/1/2 102/1/2 109/1/2
f 109/2/2 103/2/2 110/2/2
f 104/4/2 105/4/2 111/4/2
f 111/4/2 105/4/2 112/4/2
f 113/2/2 114/2/2 121/2/2
f 114/1/2 115/1/2 122/1/2
f 121/2/2 114/2/2 122/2/2
f 115/4/2 116/4/2 123/4/2
f 122/1/2 115/1/2 123/1/2
f 116/1/2 117/1/2 124/1/2
f 123/4/2 116/4/2 124/4/2
f 117/2/2 118/2/2 125/2/2
f 124/1/2 117/1/2 125/1/2
f 125/2/2 118/2/2 126/2/2
f 119/4/2 120/4/2 127/4/2
f 127/4/2 120/4/2 128/4/2
f 129/3/2 130/3/2 131/3/2
f 131/3/2 130/3/2 132/3/2
f 135/3/3 134/3/3 133/3/3
f 136/3/3 134/3/3 135/3/3
f 139/2/3 138/2/3 137/2/3
f 140/2/3 138/2/3 139/2/3
f 143/2/3 142/2/3 141/2/3
f 144/2/3 142/2/3 143/2/3
f 147/2/3 146/2/3 145/2/3
f 148/2/3 146/2/3 147/2/3
f 151/1/3 150/1/3 149/1/3
f 152/1/3 150/1/3 151/1/3
f 155/4/3 154/4/3 153/4/3
f 156/4/3 154/4/3 155/4/3
f 159/4/3 158/4/3 157/4/3
f 160/4/3 158/4/3 159/4/3
f 163/4/3 162/4/3 161/4/3
f 164/4/3 162/4/3 163/4/3
f 167/4/3 166/4/3 165/4/3
f 168/4/3 166/4/3 167/4/3
f 171/4/3 170/4/3 169/4/3
f 172/4/3 170/4/3 171/4/3
f 175/5/3 174/5/3 173/5/3
f 176/5/3 174/5/3 175/5/3
f 177/4/3 176/4/3 175/4/3
f 178/4/3 176/4/3 177/4/3
f 179/2/4 180/2/4 181/2/4
f 181/2/4 180/2/4 182/2/4
f 183/2/4 184/2/4 185/2/4
f 185/2/4 184/2/4 186/2/4
f 187/1/4 188/1/4 189/1/4
f 189/1/4 188/1/4 190/1/4
f 191/2/4 192/2/4 193/2/4
f 193/2/4 192/2/4 194/2/4
f 195/2/4 196/2/4 197/2/4
f 197/2/4 196/2/4 198/2/4
f 199/2/4 200/2/4 201/2/4
f 201/2/4 200/2/4 202/2/4
f 203/4/4 204/4/4 205/4/4
f 205/4/4 204/4/4 206/4/4
f 207/4/4 208/4/4 209/4/4
f 209/4/4 208/4/4 210/4/4
f 211/4/4 212/4/4 213/4/4
f 213/4/4 212/4/4 214/4/4
f 215/4/4 216/4/4 217/4/4
f 217/4/4 216/4/4 218/4/4
f 219/4/4 220/4/4 221/4/4
f 221/4/4 220/4/4 222/4/4
f 223/5/4 224/5/4 225/5/4
f 225/5/4 224/5/4 226/5/4
f 225/4/4 226/4/4 227/4/4
f 227/4/4 226/4/4 228/4/4
f 229/3/4 230/3/4 231/3/4
f 231/3/4 230/3/4 232/3/4
f 235/3/5 234/3/5 233/3/5
f 236/3/5 234/3/5 235/3/5
f 237/3/5 234/3/5 236/3/5
f 238/3/5 234/3/5 237/3/5
f 239/3/5 234/3/5 238/3/5
f 240/3/5 234/3/5 239/3/5
f 241/3/5 237/3/5 236/3/5
f 241/4/5 238/4/5 237/4/5
f 242/4/5 238/4/5 241/4/5
f 243/4/5 238/4/5 242/4/5
f 244/3/5 239/3/5 238/3/5
f 244/4/5 238/4/5 243/4/5
f 245/4/5 243/4/5 242/4/5
f 245/3/5 242/3/5 241/3/5
f 246/3/5 244/3/5 243/3/5
f 246/4/5 243/4/5 245/4/5
f 247/3/5 241/3/5 236/3/5
f 247/3/5 245/3/5 241/3/5
f 247/3/5 246/3/5 245/3/5
f 248/3/5 239/3/5 244/3/5
f 248/3/5 246/3/5 247/3/5
f 248/3/5 244/3/5 246/3/5
f 249/3/5 235/3/5 233/3/5
f 249/4/5 236/4/5 235/4/5
f 250/3/5 247/3/5 236/3/5
f 250/4/5 236/4/5 249/4/5
f 251/4/5 248/4/5 247/4/5
f 251/3/5 247/3/5 250/3/5
f 252/3/5 239/3/5 248/3/5
f 252/4/5 248/4/5 251/4/5
f 253/4/5 240/4/5 239/4/5
f 253/3/5 239/3/5 252/3/5
f 254/3/5 234/3/5 240/3/5
f 254/4/5 240/4/5 253/4/5
f 255/3/5 251/3/5 250/3/5
f 255/3/5 250/3/5 249/3/5
f 255/3/5 254/3/5 253/3/5
f 255/3/5 249/3/5 233/3/5
f 255/3/5 252/3/5 251/3/5
f 255/3/5 253/3/5 252/3/5
f 256/3/5 254/3/5 255/3/5
f 257/3/5 254/3/5 256/3/5
f 258/3/5 254/3/5 257/3/5
f 259/3/5 254/3/5 258/3/5
f 260/3/5 254/3/5 259/3/5
f 261/3/5 254/3/5 260/3/5
f 262/3/5 254/3/5 261/3/5
f 263/3/5 254/3/5 262/3/5
f 264/3/5 254/3/5 263/3/5
f 265/3/5 254/3/5 264/3/5
f 266/3/5 234/3/5 254/3/5
f 266/3/5 254/3/5 265/3/5
f 267/3/5 255/3/5 233/3/5
f 267/4/5 256/4/5 255/4/5
f 268/3/5 257/3/5 256/3/5
f 268/4/5 256/4/5 267/4/5
f 269/4/5 258/4/5 257/4/5
f 269/3/5 257/3/5 268/3/5
f 270/3/5 259/3/5 258/3/5
f 270/4/5 258/4/5 269/4/5
f 271/4/5 260/4/5 259/4/5
f 271/3/5 259/3/5 270/3/5
f 272/3/5 261/3/5 260/3/5
f 272/4/5 260/4/5 271/4/5
f 273/4/5 262/4/5 261/4/5
f 273/3/5 261/3/5 272/3/5
f 274/3/5 263/3/5 262/3/5
f 274/4/5 262/4/5 273/4/5
f 275/4/5 264/4/5 263/4/5
f 275/3/5 263/3/5 274/3/5
f 276/3/5 265/3/5 264/3/5
f 276/4/5 264/4/5 275/4/5
f 277/4/5 266/4/5 265/4/5
f 277/3/5 265/3/5 276/3/5
f 278/3/5 234/3/5 266/3/5
f 278/4/5 266/4/5 277/4/5
f 279/3/5 275/3/5 274/3/5
f 279/3/5 277/3/5 276/3/5
f 279/3/5 278/3/5 277/3/5
f 279/3/5 274/3/5 273/3/5
f 279/3/5 273/3/5 272/3/5
f 279/3/5 272/3/5 271/3/5
f 279/3/5 271/3/5 270/3/5
f 279/3/5 270/3/5 269/3/5
f 279/3/5 269/3/5 268/3/5
f 279/3/5 268/3/5 267/3/5
f 279/3/5 267/3/5 233/3/5
f 279/3/5 276/3/5 275/3/5
f 280/3/5 234/3/5 278/3/5
f 280/3/5 278/3/5 279/3/5
f 281/3/6 282/3/6 283/3/6
f 283/3/6 282/3/6 284/3/6
f 284/3/6 282/3/6 285/3/6
f 285/3/6 282/3/6 286/3/6
f 286/3/6 282/3/6 287/3/6
f 287/3/6 282/3/6 288/3/6
f 281/3/6 283/3/6 289/3/6
f 284/3/6 285/3/6 290/3/6
f 290/3/6 285/3/6 291/3/6
f 286/3/6 287/3/6 294/3/6
f 294/3/6 287/3/6 295/3/6
f 288/3/6 282/3/6 296/3/6
f 281/3/6 289/3/6 297/3/6
f 291/3/6 292/3/6 298/3/6
f 290/3/6 291/3/6 298/3/6
f 298/3/6 292/3/6 299/3/6
f 294/3/6 295/3/6 300/3/6
f 293/3/6 294/3/6 300/3/6
f 300/3/6 295/3/6 301/3/6
f 296/3/6 282/3/6 302/3/6
f 281/3/6 297/3/6 303/3/6
f 298/3/6 299/3/6 304/3/6
f 300/3/6 301/3/6 304/3/6
f 299/3/6 300/3/6 304/3/6
f 304/3/6 301/3/6 305/3/6
f 305/3/6 301/3/6 306/3/6
f 306/3/6 301/3/6 307/3/6
f 302/3/6 282/3/6 308/3/6
f 281/3/6 303/3/6 309/3/6
f 304/3/6 305/3/6 310/3/6
f 310/3/6 305/3/6 311/3/6
f 306/3/6 307/3/6 312/3/6
f 312/3/6 307/3/6 313/3/6
f 308/3/6 282/3/6 314/3/6
f 281/3/6 309/3/6 315/3/6
f 310/3/6 311/3/6 316/3/6
f 316/3/6 311/3/6 317/3/6
f 312/3/6 313/3/6 318/3/6
f 318/3/6 313/3/6 319/3/6
f 314/3/6 282/3/6 320/3/6
f 316/3/6 317/3/6 321/3/6
f 319/3/6 320/3/6 321/3/6
f 281/3/6 315/3/6 321/3/6
f 318/3/6 319/3/6 321/3/6
f 317/3/6 318/3/6 321/3/6
f 315/3/6 316/3/6 321/3/6
f 321/3/6 320/3/6 322/3/6
f 322/3/6 320/3/6 323/3/6
f 323/3/6 320/3/6 324/3/6
f 324/3/6 320/3/6 325/3/6
f 325/3/6 320/3/6 326/3/6
f 326/3/6 320/3/6 327/3/6
f 327/3/6 320/3/6 328/3/6
f 328/3/6 320/3/6 329/3/6
f 329/3/6 320/3/6 330/3/6
f 330/3/6 320/3/6 331/3/6
f 331/3/6 320/3/6 332/3/6
f 320/3/6 282/3/6 333/3/6
f 332/3/6 320/3/6 333/3/6
f 281/3/6 321/3/6 334/3/6
f 322/3/6 323/3/6 335/3/6
f 335/3/6 323/3/6 336/3/6
f 324/3/6 325/3/6 337/3/6
f 337/3/6 325/3/6 338/3/6
f 326/3/6 327/3/6 339/3/6
f 339/3/6 327/3/6 340/3/6
f 328/3/6 329/3/6 341/3/6
f 341/3/6 329/3/6 342/3/6
f 330/3/6 331/3/6 343/3/6
f 343/3/6 331/3/6 344/3/6
f 333/3/6 282/3/6 346/3/6
f 344/3/6 345/3/6 347/3/6
f 345/3/6 346/3/6 347/3/6
f 341/3/6 342/3/6 347/3/6
f 339/3/6 340/3/6 347/3/6
f 343/3/6 344/3/6 347/3/6
f 342/3/6 343/3/6 347/3/6
f 281/3/6 334/3/6 347/3/6
f 340/3/6 341/3/6 347/3/6
f 337/3/6 338/3/6 347/3/6
f 338/3/6 339/3/6 347/3/6
f 335/3/6 336/3/6 347/3/6
f 336/3/6 337/3/6 347/3/6
f 334/3/6 335/3/6 347/3/6
f 346/3/6 282/3/6 348/3/6
f 347/3/6 346/3/6 348/3/6
f 349/2/6 350/2/6 355/2/6
f 355/2/6 350/2/6 356/2/6
f 351/2/6 352/2/6 357/2/6
f 357/2/6 352/2/6 358/2/6
f 358/2/6 352/2/6 359/2/6
f 359/2/6 352/2/6 360/2/6
f 353/2/6 354/2/6 361/2/6
f 361/2/6 354/2/6 362/2/6
f 355/1/6 356/1/6 363/1/6
f 363/1/6 356/1/6 364/1/6
f 358/1/6 359/1/6 365/1/6
f 365/1/6 359/1/6 366/1/6
f 361/1/6 362/1/6 367/1/6
f 367/1/6 362/1/6 368/1/6
f 363/4/6 364/4/6 369/4/6
f 369/4/6 364/4/6 370/4/6
f 367/4/6 368/4/6 373/4/6
f 373/4/6 368/4/6 374/4/6
f 369/1/6 370/1/6 375/1/6
f 375/1/6 370/1/6 376/1/6
f 371/1/6 372/1/6 377/1/6
f 377/1/6 372/1/6 378/1/6
f 373/1/6 374/1/6 379/1/6
f 379/1/6 374/1/6 380/1/6
f 375/2/6 376/2/6 381/2/6
f 381/2/6 376/2/6 382/2/6
f 377/2/6 378/2/6 383/2/6
f 383/2/6 378/2/6 384/2/6
f 379/2/6 380/2/6 385/2/6
f 385/2/6 380/2/6 386/2/6
f 387/4/6 388/4/6 400/4/6
f 400/4/6 388/4/6 401/4/6
f 389/4/6 390/4/6 402/4/6
f 402/4/6 390/4/6 403/4/6
f 391/4/6 392/4/6 404/4/6
f 404/4/6 392/4/6 405/4/6
f 393/4/6 394/4/6 406/4/6
f 406/4/6 394/4/6 407/4/6
f 395/4/6 396/4/6 408/4/6
f 408/4/6 396/4/6 409/4/6
f 397/5/6 398/5/6 410/5/6
f 398/4/6 399/4/6 411/4/6
f 410/5/6 398/5/6 411/5/6
f 411/4/6 399/4/6 412/4/6
