# MagicaVoxel @ Ephtracy

# group
o keyboard

# material
mtllib computer-3-keyboard.mtl
usemtl palette

# normals
vn -1 0 0
vn 1 0 0
vn 0 0 1
vn 0 0 -1
vn 0 -1 0
vn 0 1 0

# texcoords
vt 0.908203 0.5
vt 0.912109 0.5
vt 0.916016 0.5

# verts
v -1.6 1.9 1
v -1.6 1.9 0.0999999
v -1.6 2 1
v -1.6 2 0.0999999
v -1.5 2 0.9
v -1.5 2 0.4
v -1.5 2 0.3
v -1.5 2 0.2
v -1.5 2.1 0.9
v -1.5 2.1 0.4
v -1.5 2.1 0.3
v -1.5 2.1 0.2
v -1.3 2 0.3
v -1.3 2 0.2
v -1.3 2.1 0.3
v -1.3 2.1 0.2
v -0.8 2 0.3
v -0.8 2 0.2
v -0.8 2.1 0.3
v -0.8 2.1 0.2
v -0.3 2 0.3
v -0.3 2 0.2
v -0.3 2.1 0.3
v -0.3 2.1 0.2
v 0.2 2 0.9
v 0.2 2 0.8
v 0.2 2 0.6
v 0.2 2 0.4
v 0.2 2 0.3
v 0.2 2 0.2
v 0.2 2.1 0.9
v 0.2 2.1 0.8
v 0.2 2.1 0.6
v 0.2 2.1 0.4
v 0.2 2.1 0.3
v 0.2 2.1 0.2
v 0.3 2 0.8
v 0.3 2 0.7
v 0.3 2.1 0.8
v 0.3 2.1 0.7
v 0.6 2 0.9
v 0.6 2 0.4
v 0.6 2 0.3
v 0.6 2 0.2
v 0.6 2.1 0.9
v 0.6 2.1 0.4
v 0.6 2.1 0.3
v 0.6 2.1 0.2
v -1.4 2 0.3
v -1.4 2 0.2
v -1.4 2.1 0.3
v -1.4 2.1 0.2
v -0.9 2 0.3
v -0.9 2 0.2
v -0.9 2.1 0.3
v -0.9 2.1 0.2
v -0.4 2 0.3
v -0.4 2 0.2
v -0.4 2.1 0.3
v -0.4 2.1 0.2
v 0.1 2 0.9
v 0.1 2 0.4
v 0.1 2 0.3
v 0.1 2 0.2
v 0.1 2.1 0.9
v 0.1 2.1 0.4
v 0.1 2.1 0.3
v 0.1 2.1 0.2
v 0.4 2 0.8
v 0.4 2 0.7
v 0.4 2.1 0.8
v 0.4 2.1 0.7
v 0.5 2 0.9
v 0.5 2 0.8
v 0.5 2 0.6
v 0.5 2 0.4
v 0.5 2 0.3
v 0.5 2 0.2
v 0.5 2.1 0.9
v 0.5 2.1 0.8
v 0.5 2.1 0.6
v 0.5 2.1 0.4
v 0.5 2.1 0.3
v 0.5 2.1 0.2
v 1 2 0.9
v 1 2 0.4
v 1 2 0.3
v 1 2 0.2
v 1 2.1 0.9
v 1 2.1 0.4
v 1 2.1 0.3
v 1 2.1 0.2
v 1.1 1.9 1
v 1.1 1.9 0.0999999
v 1.1 2 1
v 1.1 2 0.0999999
v -1.6 1.9 1
v -1.6 2 1
v 1.1 1.9 1
v 1.1 2 1
v -1.5 2 0.9
v -1.5 2.1 0.9
v 0.1 2 0.9
v 0.1 2.1 0.9
v 0.2 2 0.9
v 0.2 2.1 0.9
v 0.5 2 0.9
v 0.5 2.1 0.9
v 0.6 2 0.9
v 0.6 2.1 0.9
v 1 2 0.9
v 1 2.1 0.9
v 0.2 2 0.6
v 0.2 2.1 0.6
v 0.5 2 0.6
v 0.5 2.1 0.6
v -1.5 2 0.3
v -1.5 2.1 0.3
v -1.4 2 0.3
v -1.4 2.1 0.3
v -1.3 2 0.3
v -1.3 2.1 0.3
v -0.9 2 0.3
v -0.9 2.1 0.3
v -0.8 2 0.3
v -0.8 2.1 0.3
v -0.4 2 0.3
v -0.4 2.1 0.3
v -0.3 2 0.3
v -0.3 2.1 0.3
v 0.1 2 0.3
v 0.1 2.1 0.3
v 0.2 2 0.3
v 0.2 2.1 0.3
v 0.5 2 0.3
v 0.5 2.1 0.3
v 0.6 2 0.3
v 0.6 2.1 0.3
v 0.7 2 0.3
v 0.7 2.1 0.3
v 1 2 0.3
v 1 2.1 0.3
v 0.2 2 0.8
v 0.2 2.1 0.8
v 0.3 2 0.8
v 0.3 2.1 0.8
v 0.4 2 0.8
v 0.4 2.1 0.8
v 0.5 2 0.8
v 0.5 2.1 0.8
v 0.3 2 0.7
v 0.3 2.1 0.7
v 0.4 2 0.7
v 0.4 2.1 0.7
v -1.5 2 0.4
v -1.5 2.1 0.4
v 0.1 2 0.4
v 0.1 2.1 0.4
v 0.2 2 0.4
v 0.2 2.1 0.4
v 0.5 2 0.4
v 0.5 2.1 0.4
v 0.6 2 0.4
v 0.6 2.1 0.4
v 1 2 0.4
v 1 2.1 0.4
v -1.5 2 0.2
v -1.5 2.1 0.2
v -1.4 2 0.2
v -1.4 2.1 0.2
v -1.3 2 0.2
v -1.3 2.1 0.2
v -0.9 2 0.2
v -0.9 2.1 0.2
v -0.8 2 0.2
v -0.8 2.1 0.2
v -0.4 2 0.2
v -0.4 2.1 0.2
v -0.3 2 0.2
v -0.3 2.1 0.2
v 0.1 2 0.2
v 0.1 2.1 0.2
v 0.2 2 0.2
v 0.2 2.1 0.2
v 0.5 2 0.2
v 0.5 2.1 0.2
v 0.6 2 0.2
v 0.6 2.1 0.2
v 0.7 2 0.2
v 0.7 2.1 0.2
v 1 2 0.2
v 1 2.1 0.2
v -1.6 1.9 0.0999999
v -1.6 2 0.0999999
v 1.1 1.9 0.0999999
v 1.1 2 0.0999999
v -1.6 1.9 1
v 1.1 1.9 1
v -1.5 1.9 0.9
v 0.1 1.9 0.9
v 0.2 1.9 0.9
v 0.5 1.9 0.9
v 0.6 1.9 0.9
v 0.9 1.9 0.9
v 0.2 1.9 0.8
v 0.3 1.9 0.8
v 0.4 1.9 0.8
v 0.5 1.9 0.8
v 0.3 1.9 0.7
v 0.4 1.9 0.7
v 0.2 1.9 0.6
v 0.5 1.9 0.6
v -1.5 1.9 0.4
v 0.1 1.9 0.4
v 0.2 1.9 0.4
v 0.5 1.9 0.4
v 0.6 1.9 0.4
v 0.9 1.9 0.4
v -1.5 1.9 0.3
v -1.4 1.9 0.3
v -1.3 1.9 0.3
v -0.9 1.9 0.3
v -0.8 1.9 0.3
v -0.4 1.9 0.3
v -0.3 1.9 0.3
v 0.1 1.9 0.3
v 0.2 1.9 0.3
v 0.5 1.9 0.3
v 0.7 1.9 0.3
v 0.9 1.9 0.3
v -1.5 1.9 0.2
v -1.4 1.9 0.2
v -1.3 1.9 0.2
v -0.9 1.9 0.2
v -0.8 1.9 0.2
v -0.4 1.9 0.2
v -0.3 1.9 0.2
v 0.1 1.9 0.2
v 0.2 1.9 0.2
v 0.5 1.9 0.2
v 0.7 1.9 0.2
v 0.9 1.9 0.2
v -1.6 1.9 0.0999999
v 1.1 1.9 0.0999999
v -1.6 2 1
v 1.1 2 1
v -1.5 2 0.9
v 0.1 2 0.9
v 0.2 2 0.9
v 0.5 2 0.9
v 0.6 2 0.9
v 1 2 0.9
v 0.2 2 0.8
v 0.3 2 0.8
v 0.4 2 0.8
v 0.5 2 0.8
v 0.3 2 0.7
v 0.4 2 0.7
v 0.2 2 0.6
v 0.5 2 0.6
v -1.5 2 0.4
v 0.1 2 0.4
v 0.2 2 0.4
v 0.5 2 0.4
v 0.6 2 0.4
v 1 2 0.4
v -1.5 2 0.3
v -1.4 2 0.3
v -1.3 2 0.3
v -0.9 2 0.3
v -0.8 2 0.3
v -0.4 2 0.3
v -0.3 2 0.3
v 0.1 2 0.3
v 0.2 2 0.3
v 0.5 2 0.3
v 0.6 2 0.3
v 0.7 2 0.3
v 1 2 0.3
v -1.5 2 0.2
v -1.4 2 0.2
v -1.3 2 0.2
v -0.9 2 0.2
v -0.8 2 0.2
v -0.4 2 0.2
v -0.3 2 0.2
v 0.1 2 0.2
v 0.2 2 0.2
v 0.5 2 0.2
v 0.6 2 0.2
v 0.7 2 0.2
v 1 2 0.2
v -1.6 2 0.0999999
v 1.1 2 0.0999999
v -1.5 2.1 0.9
v 0.1 2.1 0.9
v 0.2 2.1 0.9
v 0.5 2.1 0.9
v 0.6 2.1 0.9
v 1 2.1 0.9
v 0.2 2.1 0.8
v 0.3 2.1 0.8
v 0.4 2.1 0.8
v 0.5 2.1 0.8
v 0.3 2.1 0.7
v 0.4 2.1 0.7
v 0.2 2.1 0.6
v 0.5 2.1 0.6
v -1.5 2.1 0.4
v 0.1 2.1 0.4
v 0.2 2.1 0.4
v 0.5 2.1 0.4
v 0.6 2.1 0.4
v 1 2.1 0.4
v -1.5 2.1 0.3
v -1.4 2.1 0.3
v -1.3 2.1 0.3
v -0.9 2.1 0.3
v -0.8 2.1 0.3
v -0.4 2.1 0.3
v -0.3 2.1 0.3
v 0.1 2.1 0.3
v 0.2 2.1 0.3
v 0.5 2.1 0.3
v 0.6 2.1 0.3
v 0.7 2.1 0.3
v 1 2.1 0.3
v -1.5 2.1 0.2
v -1.4 2.1 0.2
v -1.3 2.1 0.2
v -0.9 2.1 0.2
v -0.8 2.1 0.2
v -0.4 2.1 0.2
v -0.3 2.1 0.2
v 0.1 2.1 0.2
v 0.2 2.1 0.2
v 0.5 2.1 0.2
v 0.6 2.1 0.2
v 0.7 2.1 0.2
v 1 2.1 0.2

# faces
f 3/1/1 2/1/1 1/1/1
f 4/1/1 2/1/1 3/1/1
f 9/2/1 6/2/1 5/2/1
f 10/2/1 6/2/1 9/2/1
f 11/2/1 8/2/1 7/2/1
f 12/2/1 8/2/1 11/2/1
f 15/2/1 14/2/1 13/2/1
f 16/2/1 14/2/1 15/2/1
f 19/2/1 18/2/1 17/2/1
f 20/2/1 18/2/1 19/2/1
f 23/2/1 22/2/1 21/2/1
f 24/2/1 22/2/1 23/2/1
f 31/2/1 26/2/1 25/2/1
f 32/2/1 26/2/1 31/2/1
f 33/2/1 28/2/1 27/2/1
f 34/2/1 28/2/1 33/2/1
f 35/2/1 30/2/1 29/2/1
f 36/2/1 30/2/1 35/2/1
f 39/2/1 38/2/1 37/2/1
f 40/2/1 38/2/1 39/2/1
f 45/2/1 42/2/1 41/2/1
f 46/2/1 42/2/1 45/2/1
f 47/3/1 44/3/1 43/3/1
f 48/3/1 44/3/1 47/3/1
f 49/2/2 50/2/2 51/2/2
f 51/2/2 50/2/2 52/2/2
f 53/2/2 54/2/2 55/2/2
f 55/2/2 54/2/2 56/2/2
f 57/2/2 58/2/2 59/2/2
f 59/2/2 58/2/2 60/2/2
f 61/2/2 62/2/2 65/2/2
f 65/2/2 62/2/2 66/2/2
f 63/2/2 64/2/2 67/2/2
f 67/2/2 64/2/2 68/2/2
f 69/2/2 70/2/2 71/2/2
f 71/2/2 70/2/2 72/2/2
f 73/2/2 74/2/2 79/2/2
f 79/2/2 74/2/2 80/2/2
f 75/2/2 76/2/2 81/2/2
f 81/2/2 76/2/2 82/2/2
f 77/2/2 78/2/2 83/2/2
f 83/2/2 78/2/2 84/2/2
f 85/2/2 86/2/2 89/2/2
f 89/2/2 86/2/2 90/2/2
f 87/2/2 88/2/2 91/2/2
f 91/2/2 88/2/2 92/2/2
f 93/1/2 94/1/2 95/1/2
f 95/1/2 94/1/2 96/1/2
f 99/1/3 98/1/3 97/1/3
f 100/1/3 98/1/3 99/1/3
f 103/2/3 102/2/3 101/2/3
f 104/2/3 102/2/3 103/2/3
f 107/2/3 106/2/3 105/2/3
f 108/2/3 106/2/3 107/2/3
f 111/2/3 110/2/3 109/2/3
f 112/2/3 110/2/3 111/2/3
f 115/2/3 114/2/3 113/2/3
f 116/2/3 114/2/3 115/2/3
f 119/2/3 118/2/3 117/2/3
f 120/2/3 118/2/3 119/2/3
f 123/2/3 122/2/3 121/2/3
f 124/2/3 122/2/3 123/2/3
f 127/2/3 126/2/3 125/2/3
f 128/2/3 126/2/3 127/2/3
f 131/2/3 130/2/3 129/2/3
f 132/2/3 130/2/3 131/2/3
f 135/2/3 134/2/3 133/2/3
f 136/2/3 134/2/3 135/2/3
f 139/3/3 138/3/3 137/3/3
f 140/3/3 138/3/3 139/3/3
f 141/2/3 140/2/3 139/2/3
f 142/2/3 140/2/3 141/2/3
f 143/2/4 144/2/4 145/2/4
f 145/2/4 144/2/4 146/2/4
f 147/2/4 148/2/4 149/2/4
f 149/2/4 148/2/4 150/2/4
f 151/2/4 152/2/4 153/2/4
f 153/2/4 152/2/4 154/2/4
f 155/2/4 156/2/4 157/2/4
f 157/2/4 156/2/4 158/2/4
f 159/2/4 160/2/4 161/2/4
f 161/2/4 160/2/4 162/2/4
f 163/2/4 164/2/4 165/2/4
f 165/2/4 164/2/4 166/2/4
f 167/2/4 168/2/4 169/2/4
f 169/2/4 168/2/4 170/2/4
f 171/2/4 172/2/4 173/2/4
f 173/2/4 172/2/4 174/2/4
f 175/2/4 176/2/4 177/2/4
f 177/2/4 176/2/4 178/2/4
f 179/2/4 180/2/4 181/2/4
f 181/2/4 180/2/4 182/2/4
f 183/2/4 184/2/4 185/2/4
f 185/2/4 184/2/4 186/2/4
f 187/3/4 188/3/4 189/3/4
f 189/3/4 188/3/4 190/3/4
f 189/2/4 190/2/4 191/2/4
f 191/2/4 190/2/4 192/2/4
f 193/1/4 194/1/4 195/1/4
f 195/1/4 194/1/4 196/1/4
f 199/1/5 198/1/5 197/1/5
f 200/1/5 198/1/5 199/1/5
f 201/1/5 198/1/5 200/1/5
f 202/1/5 198/1/5 201/1/5
f 203/1/5 198/1/5 202/1/5
f 204/1/5 198/1/5 203/1/5
f 205/1/5 201/1/5 200/1/5
f 205/2/5 202/2/5 201/2/5
f 206/2/5 202/2/5 205/2/5
f 207/2/5 202/2/5 206/2/5
f 208/1/5 203/1/5 202/1/5
f 208/2/5 202/2/5 207/2/5
f 209/2/5 207/2/5 206/2/5
f 209/1/5 206/1/5 205/1/5
f 210/1/5 208/1/5 207/1/5
f 210/2/5 207/2/5 209/2/5
f 211/1/5 205/1/5 200/1/5
f 211/1/5 209/1/5 205/1/5
f 211/1/5 210/1/5 209/1/5
f 212/1/5 203/1/5 208/1/5
f 212/1/5 210/1/5 211/1/5
f 212/1/5 208/1/5 210/1/5
f 213/1/5 199/1/5 197/1/5
f 213/2/5 200/2/5 199/2/5
f 214/1/5 211/1/5 200/1/5
f 214/2/5 200/2/5 213/2/5
f 215/2/5 212/2/5 211/2/5
f 215/1/5 211/1/5 214/1/5
f 216/1/5 203/1/5 212/1/5
f 216/2/5 212/2/5 215/2/5
f 217/2/5 204/2/5 203/2/5
f 217/1/5 203/1/5 216/1/5
f 218/1/5 198/1/5 204/1/5
f 218/2/5 204/2/5 217/2/5
f 219/1/5 215/1/5 214/1/5
f 219/1/5 214/1/5 213/1/5
f 219/1/5 218/1/5 217/1/5
f 219/1/5 213/1/5 197/1/5
f 219/1/5 216/1/5 215/1/5
f 219/1/5 217/1/5 216/1/5
f 220/1/5 218/1/5 219/1/5
f 221/1/5 218/1/5 220/1/5
f 222/1/5 218/1/5 221/1/5
f 223/1/5 218/1/5 222/1/5
f 224/1/5 218/1/5 223/1/5
f 225/1/5 218/1/5 224/1/5
f 226/1/5 218/1/5 225/1/5
f 227/1/5 218/1/5 226/1/5
f 228/1/5 218/1/5 227/1/5
f 229/1/5 218/1/5 228/1/5
f 230/1/5 198/1/5 218/1/5
f 230/1/5 218/1/5 229/1/5
f 231/1/5 219/1/5 197/1/5
f 231/2/5 220/2/5 219/2/5
f 232/1/5 221/1/5 220/1/5
f 232/2/5 220/2/5 231/2/5
f 233/2/5 222/2/5 221/2/5
f 233/1/5 221/1/5 232/1/5
f 234/1/5 223/1/5 222/1/5
f 234/2/5 222/2/5 233/2/5
f 235/2/5 224/2/5 223/2/5
f 235/1/5 223/1/5 234/1/5
f 236/1/5 225/1/5 224/1/5
f 236/2/5 224/2/5 235/2/5
f 237/2/5 226/2/5 225/2/5
f 237/1/5 225/1/5 236/1/5
f 238/1/5 227/1/5 226/1/5
f 238/2/5 226/2/5 237/2/5
f 239/2/5 228/2/5 227/2/5
f 239/1/5 227/1/5 238/1/5
f 240/1/5 229/1/5 228/1/5
f 240/2/5 228/2/5 239/2/5
f 241/2/5 230/2/5 229/2/5
f 241/1/5 229/1/5 240/1/5
f 242/1/5 198/1/5 230/1/5
f 242/2/5 230/2/5 241/2/5
f 243/1/5 239/1/5 238/1/5
f 243/1/5 241/1/5 240/1/5
f 243/1/5 242/1/5 241/1/5
f 243/1/5 238/1/5 237/1/5
f 243/1/5 237/1/5 236/1/5
f 243/1/5 236/1/5 235/1/5
f 243/1/5 235/1/5 234/1/5
f 243/1/5 234/1/5 233/1/5
f 243/1/5 233/1/5 232/1/5
f 243/1/5 232/1/5 231/1/5
f 243/1/5 231/1/5 197/1/5
f 243/1/5 240/1/5 239/1/5
f 244/1/5 198/1/5 242/1/5
f 244/1/5 242/1/5 243/1/5
f 245/1/6 246/1/6 247/1/6
f 247/1/6 246/1/6 248/1/6
f 248/1/6 246/1/6 249/1/6
f 249/1/6 246/1/6 250/1/6
f 250/1/6 246/1/6 251/1/6
f 251/1/6 246/1/6 252/1/6
f 248/1/6 249/1/6 253/1/6
f 250/1/6 251/1/6 256/1/6
f 253/1/6 254/1/6 257/1/6
f 255/1/6 256/1/6 258/1/6
f 253/1/6 257/1/6 259/1/6
f 257/1/6 258/1/6 259/1/6
f 248/1/6 253/1/6 259/1/6
f 258/1/6 256/1/6 260/1/6
f 259/1/6 258/1/6 260/1/6
f 256/1/6 251/1/6 260/1/6
f 245/1/6 247/1/6 261/1/6
f 248/1/6 259/1/6 262/1/6
f 262/1/6 259/1/6 263/1/6
f 260/1/6 251/1/6 264/1/6
f 264/1/6 251/1/6 265/1/6
f 252/1/6 246/1/6 266/1/6
f 262/1/6 263/1/6 267/1/6
f 265/1/6 266/1/6 267/1/6
f 264/1/6 265/1/6 267/1/6
f 245/1/6 261/1/6 267/1/6
f 263/1/6 264/1/6 267/1/6
f 261/1/6 262/1/6 267/1/6
f 267/1/6 266/1/6 268/1/6
f 268/1/6 266/1/6 269/1/6
f 269/1/6 266/1/6 270/1/6
f 270/1/6 266/1/6 271/1/6
f 271/1/6 266/1/6 272/1/6
f 272/1/6 266/1/6 273/1/6
f 273/1/6 266/1/6 274/1/6
f 274/1/6 266/1/6 275/1/6
f 275/1/6 266/1/6 276/1/6
f 276/1/6 266/1/6 277/1/6
f 277/1/6 266/1/6 278/1/6
f 266/1/6 246/1/6 279/1/6
f 278/1/6 266/1/6 279/1/6
f 245/1/6 267/1/6 280/1/6
f 268/1/6 269/1/6 281/1/6
f 281/1/6 269/1/6 282/1/6
f 270/1/6 271/1/6 283/1/6
f 283/1/6 271/1/6 284/1/6
f 272/1/6 273/1/6 285/1/6
f 285/1/6 273/1/6 286/1/6
f 274/1/6 275/1/6 287/1/6
f 287/1/6 275/1/6 288/1/6
f 276/1/6 277/1/6 289/1/6
f 289/1/6 277/1/6 290/1/6
f 279/1/6 246/1/6 292/1/6
f 290/1/6 291/1/6 293/1/6
f 291/1/6 292/1/6 293/1/6
f 287/1/6 288/1/6 293/1/6
f 285/1/6 286/1/6 293/1/6
f 289/1/6 290/1/6 293/1/6
f 288/1/6 289/1/6 293/1/6
f 245/1/6 280/1/6 293/1/6
f 286/1/6 287/1/6 293/1/6
f 283/1/6 284/1/6 293/1/6
f 284/1/6 285/1/6 293/1/6
f 281/1/6 282/1/6 293/1/6
f 282/1/6 283/1/6 293/1/6
f 280/1/6 281/1/6 293/1/6
f 292/1/6 246/1/6 294/1/6
f 293/1/6 292/1/6 294/1/6
f 297/2/6 298/2/6 301/2/6
f 301/2/6 298/2/6 302/2/6
f 302/2/6 298/2/6 303/2/6
f 303/2/6 298/2/6 304/2/6
f 302/2/6 303/2/6 305/2/6
f 305/2/6 303/2/6 306/2/6
f 295/2/6 296/2/6 309/2/6
f 309/2/6 296/2/6 310/2/6
f 307/2/6 308/2/6 311/2/6
f 311/2/6 308/2/6 312/2/6
f 299/2/6 300/2/6 313/2/6
f 313/2/6 300/2/6 314/2/6
f 315/2/6 316/2/6 328/2/6
f 328/2/6 316/2/6 329/2/6
f 317/2/6 318/2/6 330/2/6
f 330/2/6 318/2/6 331/2/6
f 319/2/6 320/2/6 332/2/6
f 332/2/6 320/2/6 333/2/6
f 321/2/6 322/2/6 334/2/6
f 334/2/6 322/2/6 335/2/6
f 323/2/6 324/2/6 336/2/6
f 336/2/6 324/2/6 337/2/6
f 325/3/6 326/3/6 338/3/6
f 326/2/6 327/2/6 339/2/6
f 338/3/6 326/3/6 339/3/6
f 339/2/6 327/2/6 340/2/6
